<svg id="pcb-stackup_bottom" version="1.1" xmlns:xlink="http://www.w3.org/1999/xlink" stroke-linecap="round" stroke-linejoin="round" stroke-width="0" fill-rule="evenodd" clip-rule="evenodd" viewBox="95200 -125400 29000 10800" width="29mm" height="10.8mm" xmlns="http://www.w3.org/2000/svg"><defs><style>.pcb-stackup_fr4 {color: #4D542C;}
.pcb-stackup_cu {color: lightgrey;}
.pcb-stackup_cf {color: silver;}
.pcb-stackup_sm {color: #000000; opacity: 0.9;}
.pcb-stackup_ss {color: white;}
.pcb-stackup_sp {color: #000000; opacity: 0;}
.pcb-stackup_out {color: black;}</style><rect x="-425" y="-425" width="850" height="850" id="_UYCvt2uEyVH_pad-10"/><rect x="-425" y="-425" width="850" height="850" rx="425" ry="425" id="_UYCvt2uEyVH_pad-11"/><rect x="-3750" y="-1000" width="7500" height="2000" id="_UYCvt2uEyVH_pad-12"/><rect x="-4000" y="-950" width="8000" height="1900" id="_UYCvt2uEyVH_pad-13"/><circle cx="0" cy="0" r="300" id="_UYCvt2uEyVH_pad-14"/><circle cx="0" cy="0" r="350" id="_UYCvt2uEyVH_pad-15"/><rect x="-425" y="-425" width="850" height="850" id="_UYCvt2uEyVH_pad-10"/><rect x="-425" y="-425" width="850" height="850" rx="425" ry="425" id="_UYCvt2uEyVH_pad-11"/><rect x="-3750" y="-1000" width="7500" height="2000" id="_UYCvt2uEyVH_pad-12"/><rect x="-4000" y="-950" width="8000" height="1900" id="_UYCvt2uEyVH_pad-13"/><circle cx="0" cy="0" r="300" id="_UYCvt2uEyVH_pad-14"/><circle cx="0" cy="0" r="350" id="_UYCvt2uEyVH_pad-15"/><circle cx="0" cy="0" r="5.9" id="qzIsC0dnVh7F_pad-1"/><circle cx="0" cy="0" r="9.85" id="qzIsC0dnVh7F_pad-2"/><rect x="-425" y="-425" width="850" height="850" id="_UYCvt2uEyVH_pad-10"/><rect x="-425" y="-425" width="850" height="850" rx="425" ry="425" id="_UYCvt2uEyVH_pad-11"/><rect x="-3750" y="-1000" width="7500" height="2000" id="_UYCvt2uEyVH_pad-12"/><rect x="-4000" y="-950" width="8000" height="1900" id="_UYCvt2uEyVH_pad-13"/><circle cx="0" cy="0" r="300" id="_UYCvt2uEyVH_pad-14"/><circle cx="0" cy="0" r="350" id="_UYCvt2uEyVH_pad-15"/><rect x="-425" y="-425" width="850" height="850" id="_UYCvt2uEyVH_pad-10"/><rect x="-425" y="-425" width="850" height="850" rx="425" ry="425" id="_UYCvt2uEyVH_pad-11"/><rect x="-3750" y="-1000" width="7500" height="2000" id="_UYCvt2uEyVH_pad-12"/><rect x="-4000" y="-950" width="8000" height="1900" id="_UYCvt2uEyVH_pad-13"/><circle cx="0" cy="0" r="300" id="_UYCvt2uEyVH_pad-14"/><circle cx="0" cy="0" r="350" id="_UYCvt2uEyVH_pad-15"/><circle cx="0" cy="0" r="5.9" id="qzIsC0dnVh7F_pad-1"/><circle cx="0" cy="0" r="9.85" id="qzIsC0dnVh7F_pad-2"/><g id="pcb-stackup_bottom_sm"><path d="M 123862.4 -124899.6 115562.4 -124899.6 115562.4 -122699.6 123862.4 -122699.6 123862.4 -124899.6 123862.4 -124899.6"/><path d="M 123362.4 -122439.6 115562.4 -122439.6 115562.4 -120139.6 123362.4 -120139.6 123362.4 -122439.6 123362.4 -122439.6"/><path d="M 123362.4 -119839.6 115562.4 -119839.6 115562.4 -117539.6 123362.4 -117539.6 123362.4 -119839.6 123362.4 -119839.6"/><path d="M 112612.718 -115533.319 112673.911 -115551.882 112721.108 -115566.199 112777.86 -115596.534 112795.971 -115604.036 112815.198 -115607.86 112834.802 -115607.86 112854.028 -115604.036 112872.14 -115596.534 112888.439 -115585.643 112902.301 -115571.781 112913.192 -115555.482 112920.694 -115537.371 112923.154 -115525 114075 -115525 114075 -116676.64 114072.149 -116676.921 114053.39 -116682.612 114036.101 -116691.853 114020.947 -116704.289 114008.511 -116719.443 113999.27 -116736.732 113993.579 -116755.491 113991.658 -116775 113993.579 -116794.509 113999.27 -116813.268 114003.466 -116822.139 114033.801 -116878.892 114033.801 -116878.893 114066.681 -116987.282 114077.783 -117100 114066.681 -117212.718 114033.801 -117321.109 113980.411 -117420.995 113964.02 -117440.967 113908.554 -117508.554 113840.967 -117564.02 113820.995 -117580.411 113721.109 -117633.801 113612.718 -117666.681 113528.251 -117675 113471.749 -117675 113387.282 -117666.681 113278.891 -117633.801 113179.005 -117580.411 113159.033 -117564.02 113091.446 -117508.554 113077.292 -117491.307 113063.439 -117477.455 113047.139 -117466.564 113029.028 -117459.062 113009.801 -117455.237 112990.198 -117455.238 112970.971 -117459.062 112952.86 -117466.564 112936.56 -117477.455 112922.708 -117491.307 112908.554 -117508.554 112840.967 -117564.02 112820.995 -117580.411 112721.109 -117633.801 112612.718 -117666.681 112528.251 -117675 112471.749 -117675 112387.282 -117666.681 112278.891 -117633.801 112179.005 -117580.411 112159.033 -117564.02 112091.446 -117508.554 112035.98 -117440.967 112019.589 -117420.995 111966.199 -117321.109 111933.319 -117212.718 111922.217 -117100 111933.319 -116987.282 111966.199 -116878.891 112019.589 -116779.005 112038.887 -116755.491 112091.446 -116691.446 112108.693 -116677.292 112122.545 -116663.439 112133.436 -116647.139 112140.938 -116629.028 112144.763 -116609.801 112144.762 -116590.198 112140.938 -116570.971 112133.436 -116552.86 112122.545 -116536.56 112108.693 -116522.708 112091.446 -116508.554 112035.98 -116440.967 112019.589 -116420.995 111966.199 -116321.109 111933.319 -116212.718 111922.217 -116100 111933.319 -115987.282 111966.199 -115878.891 112019.589 -115779.005 112035.98 -115759.033 112091.446 -115691.446 112159.033 -115635.98 112179.005 -115619.589 112278.891 -115566.199 112387.282 -115533.319 112471.749 -115525 112528.251 -115525 112612.718 -115533.319 112612.718 -115533.319"/><path d="M 123862.4 -117279.6 115562.4 -117279.6 115562.4 -115079.6 123862.4 -115079.6 123862.4 -117279.6 123862.4 -117279.6"/></g><g id="pcb-stackup_bottom_sp" transform="scale(25.4,25.4)"/><g id="pcb-stackup_bottom_ss"><path d="M 107452.38 -115400 107547.619 -115352.38 107690.476 -115352.38 107833.333 -115400 107928.571 -115495.238 107976.19 -115590.476 108023.809 -115780.952 108023.809 -115923.809 107976.19 -116114.285 107928.571 -116209.523 107833.333 -116304.761 107690.476 -116352.38 107595.238 -116352.38 107452.38 -116304.761 107404.761 -116257.142 107404.761 -115923.809 107595.238 -115923.809 M 106976.19 -115685.714 106976.19 -116352.38 M 106976.19 -115780.952 106928.571 -115733.333 106833.333 -115685.714 106690.476 -115685.714 106595.238 -115733.333 106547.619 -115828.571 106547.619 -116352.38 M 105642.857 -115685.714 105642.857 -116352.38 M 106071.428 -115685.714 106071.428 -116209.523 106023.809 -116304.761 105928.571 -116352.38 105785.714 -116352.38 105690.476 -116304.761 105642.857 -116257.142 M 105166.666 -116352.38 105166.666 -115352.38 M 104595.238 -116352.38 105023.809 -115780.952 M 104595.238 -115352.38 105166.666 -115923.809 M 103785.714 -116304.761 103880.952 -116352.38 104071.428 -116352.38 104166.666 -116304.761 104214.285 -116209.523 104214.285 -115828.571 104166.666 -115733.333 104071.428 -115685.714 103880.952 -115685.714 103785.714 -115733.333 103738.095 -115828.571 103738.095 -115923.809 104214.285 -116019.047 M 103404.761 -115685.714 103166.666 -116352.38 M 102928.571 -115685.714 103166.666 -116352.38 103261.904 -116590.476 103309.523 -116638.095 103404.761 -116685.714" fill="none" stroke-width="250"/><path d="M 106985.714 -124770.952 107252.38 -124380.476 M 107442.857 -124770.952 107442.857 -123950.952 107138.095 -123950.952 107061.904 -123990 107023.809 -124029.047 106985.714 -124107.142 106985.714 -124224.285 107023.809 -124302.38 107061.904 -124341.428 107138.095 -124380.476 107442.857 -124380.476 M 106338.095 -124731.904 106414.285 -124770.952 106566.666 -124770.952 106642.857 -124731.904 106680.952 -124653.809 106680.952 -124341.428 106642.857 -124263.333 106566.666 -124224.285 106414.285 -124224.285 106338.095 -124263.333 106300 -124341.428 106300 -124419.523 106680.952 -124497.619 M 106033.333 -124224.285 105842.857 -124770.952 105652.38 -124224.285 M 104738.095 -124770.952 104738.095 -123950.952 104547.619 -123950.952 104433.333 -123990 104357.142 -124068.095 104319.047 -124146.19 104280.952 -124302.38 104280.952 -124419.523 104319.047 -124575.714 104357.142 -124653.809 104433.333 -124731.904 104547.619 -124770.952 104738.095 -124770.952 M 103976.19 -124731.904 103861.904 -124770.952 103671.428 -124770.952 103595.238 -124731.904 103557.142 -124692.857 103519.047 -124614.761 103519.047 -124536.666 103557.142 -124458.571 103595.238 -124419.523 103671.428 -124380.476 103823.809 -124341.428 103900 -124302.38 103938.095 -124263.333 103976.19 -124185.238 103976.19 -124107.142 103938.095 -124029.047 103900 -123990 103823.809 -123950.952 103633.333 -123950.952 103519.047 -123990" fill="none" stroke-width="150"/><path d="M 99935.828 -119813.651 99926.018 -119758.534 99900.864 -119723.005 99854.43 -119700.128 99780.779 -119682.962 99673.975 -119664.57 99630.917 -119657.132 99538.536 -119639.864 99460.224 -119623.35 99406.47 -119609.902 99389.785 -119603.965 99371.891 -119580.031 99343.662 -119527.508 99309.979 -119457.315 99275.718 -119380.368 99245.761 -119307.585 99224.984 -119249.884 99218.167 -119219.941 99229.557 -119197.433 99260.615 -119147.535 99306.672 -119077.499 99363.059 -118994.576 99366.334 -118989.834 99423.332 -118905.384 99470.168 -118832.229 99502.123 -118778.007 99514.481 -118750.357 99514.5 -118749.907 99500.229 -118726.323 99462.14 -118681.068 99407.325 -118621.33 99342.874 -118554.296 99275.877 -118487.155 99213.426 -118427.093 99162.611 -118381.3 99130.522 -118356.962 99124.775 -118354.834 99101.123 -118366.131 99050.035 -118396.95 98978.858 -118442.68 98894.939 -118498.713 98888.632 -118503 98804.571 -118559.508 98733.291 -118606.084 98681.958 -118638.141 98657.736 -118651.094 98657.193 -118651.167 98629.425 -118643.019 98574.692 -118621.685 98503.583 -118591.828 98426.686 -118558.114 98354.588 -118525.207 98297.876 -118497.771 98267.14 -118480.471 98264.756 -118478.278 98256.739 -118451.772 98243.919 -118392.775 98228.202 -118310.592 98214.697 -118233.673 98197.148 -118136.804 98179.804 -118052.946 98164.945 -117992.513 98156.655 -117968.542 98143.817 -117953.135 98119.648 -117942.637 98077.015 -117936.145 98008.784 -117932.756 97907.821 -117931.565 97864.182 -117931.5 97751.025 -117932.081 97673.269 -117934.423 97623.989 -117939.431 97596.261 -117948.008 97583.161 -117961.056 97580.219 -117968.542 97571.946 -118003.702 97558.028 -118070.257 97540.556 -118157.98 97525.289 -118237.24 97507.289 -118330.372 97491.969 -118406.447 97481.092 -118456.901 97476.622 -118473.289 97451.803 -118485.907 97397.873 -118508.576 97325.623 -118537.196 97245.84 -118567.67 97169.313 -118595.897 97106.832 -118617.778 97069.185 -118629.216 97064.154 -118630 97035.943 -118618.452 96981.572 -118587.118 96909.221 -118540.971 96837.698 -118492.417 96757.525 -118437.598 96689.573 -118393.146 96641.545 -118363.972 96621.805 -118354.834 96600.727 -118369.05 96556.253 -118407.937 96494.538 -118465.851 96421.736 -118537.148 96408.089 -118550.808 96212.93 -118746.782 96359.521 -118966.946 96506.113 -119187.111 96453.134 -119291.66 96425.681 -119350.543 96410.52 -119392.6 96409.767 -119405.823 96433.027 -119417.926 96488.674 -119442.83 96569.761 -119477.684 96669.341 -119519.634 96780.469 -119565.828 96896.197 -119613.415 97009.579 -119659.542 97113.669 -119701.356 97201.52 -119736.005 97266.185 -119760.638 97300.72 -119772.401 97303.989 -119773 97330.011 -119757.366 97370.057 -119717.121 97400.653 -119679.947 97511.472 -119565.53 97638.015 -119486.342 97774.349 -119442.91 97914.54 -119435.765 98052.654 -119465.436 98182.756 -119532.453 98266.675 -119602.659 98356.424 -119719.116 98411.601 -119849.126 98433.216 -119985.768 98422.279 -120122.117 98379.8 -120251.251 98306.79 -120366.247 98204.257 -120460.181 98135.716 -120500.325 97981.471 -120556.246 97833.572 -120571.157 97694.076 -120545.336 97565.039 -120479.061 97485.715 -120412.416 97428.441 -120352.937 97380.111 -120297.871 97354.402 -120263.806 97323.75 -120214.861 96879.25 -120398.101 96750.692 -120451.495 96635.166 -120500.231 96538.478 -120541.8 96466.431 -120573.69 96424.831 -120593.392 96417.215 -120597.931 96416.4 -120624.291 96432.651 -120674.957 96453.274 -120720.284 96506.868 -120826.047 96359.684 -121038.509 96303.179 -121120.658 96256.714 -121189.318 96224.946 -121237.53 96212.53 -121258.335 96212.5 -121258.529 96226.641 -121275.389 96265.382 -121316.288 96323.2 -121375.517 96394.573 -121447.37 96413.301 -121466.052 96614.101 -121666.017 97058.277 -121360.261 97254.514 -121437.599 97339.464 -121471.847 97409.528 -121501.529 97455.334 -121522.597 97467.495 -121529.605 97477.707 -121555.036 97493.183 -121613.497 97511.834 -121696.329 97531.571 -121794.871 97531.849 -121796.345 97579.458 -122048.417 97869.094 -122054.303 97984.712 -122056.427 98064.86 -122056.643 98116.39 -122053.985 98146.154 -122047.487 98161.004 -122036.184 98167.792 -122019.109 98169.448 -122011.969 98177.746 -121971.369 98191.549 -121900.461 98208.671 -121810.567 98220.932 -121745.25 98238.434 -121654.479 98253.759 -121580.567 98264.968 -121532.54 98269.501 -121518.944 98294.745 -121504.89 98348.459 -121480.378 98419.53 -121449.967 98496.848 -121418.216 98569.302 -121389.685 98625.781 -121368.932 98655.173 -121360.516 98655.657 -121360.5 98682.433 -121371.93 98736.12 -121403.089 98809.049 -121449.285 98893.553 -121505.823 98897.697 -121508.667 98981.358 -121565.365 99052.412 -121612.042 99103.643 -121644.061 99127.833 -121656.785 99128.289 -121656.834 99151.345 -121642.244 99195.562 -121603.305 99253.925 -121547.26 99319.418 -121481.354 99385.026 -121412.831 99443.733 -121348.935 99488.524 -121296.91 99512.382 -121264 99514.501 -121258.038 99503.001 -121229.811 99471.775 -121175.277 99425.73 -121102.558 99375.436 -121027.926 99319.129 -120945.517 99271.682 -120874.044 99238.445 -120821.701 99225.143 -120797.816 99228.195 -120767.325 99244.559 -120709.745 99269.912 -120636.468 99299.93 -120558.891 99330.291 -120488.407 99356.672 -120436.413 99369.017 -120418.584 99396.186 -120406.704 99456.477 -120389.379 99541.376 -120368.805 99642.366 -120347.178 99657.893 -120344.075 99927.25 -120290.732 99933.159 -120010.41 99936.229 -119895.297 99935.828 -119813.651 99935.828 -119813.651"/><path d="M 99935.828 -119813.651 99926.018 -119758.534 99900.864 -119723.005 99854.43 -119700.128 99780.779 -119682.962 99673.975 -119664.57 99630.917 -119657.132 99538.536 -119639.864 99460.224 -119623.35 99406.47 -119609.902 99389.785 -119603.965 99371.891 -119580.031 99343.662 -119527.508 99309.979 -119457.315 99275.718 -119380.368 99245.761 -119307.585 99224.984 -119249.884 99218.167 -119219.941 99229.557 -119197.433 99260.615 -119147.535 99306.672 -119077.499 99363.059 -118994.576 99366.334 -118989.834 99423.332 -118905.384 99470.168 -118832.229 99502.123 -118778.007 99514.481 -118750.357 99514.5 -118749.907 99500.229 -118726.323 99462.14 -118681.068 99407.325 -118621.33 99342.874 -118554.296 99275.877 -118487.155 99213.426 -118427.093 99162.611 -118381.3 99130.522 -118356.962 99124.775 -118354.834 99101.123 -118366.131 99050.035 -118396.95 98978.858 -118442.68 98894.939 -118498.713 98888.632 -118503 98804.571 -118559.508 98733.291 -118606.084 98681.958 -118638.141 98657.736 -118651.094 98657.193 -118651.167 98629.425 -118643.019 98574.692 -118621.685 98503.583 -118591.828 98426.686 -118558.114 98354.588 -118525.207 98297.876 -118497.771 98267.14 -118480.471 98264.756 -118478.278 98256.739 -118451.772 98243.919 -118392.775 98228.202 -118310.592 98214.697 -118233.673 98197.148 -118136.804 98179.804 -118052.946 98164.945 -117992.513 98156.655 -117968.542 98143.817 -117953.135 98119.648 -117942.637 98077.015 -117936.145 98008.784 -117932.756 97907.821 -117931.565 97864.182 -117931.5 97751.025 -117932.081 97673.269 -117934.423 97623.989 -117939.431 97596.261 -117948.008 97583.161 -117961.056 97580.219 -117968.542 97571.946 -118003.702 97558.028 -118070.257 97540.556 -118157.98 97525.289 -118237.24 97507.289 -118330.372 97491.969 -118406.447 97481.092 -118456.901 97476.622 -118473.289 97451.803 -118485.907 97397.873 -118508.576 97325.623 -118537.196 97245.84 -118567.67 97169.313 -118595.897 97106.832 -118617.778 97069.185 -118629.216 97064.154 -118630 97035.943 -118618.452 96981.572 -118587.118 96909.221 -118540.971 96837.698 -118492.417 96757.525 -118437.598 96689.573 -118393.146 96641.545 -118363.972 96621.805 -118354.834 96600.727 -118369.05 96556.253 -118407.937 96494.538 -118465.851 96421.736 -118537.148 96408.089 -118550.808 96212.93 -118746.782 96359.521 -118966.946 96506.113 -119187.111 96453.134 -119291.66 96425.681 -119350.543 96410.52 -119392.6 96409.767 -119405.823 96433.027 -119417.926 96488.674 -119442.83 96569.761 -119477.684 96669.341 -119519.634 96780.469 -119565.828 96896.197 -119613.415 97009.579 -119659.542 97113.669 -119701.356 97201.52 -119736.005 97266.185 -119760.638 97300.72 -119772.401 97303.989 -119773 97330.011 -119757.366 97370.057 -119717.121 97400.653 -119679.947 97511.472 -119565.53 97638.015 -119486.342 97774.349 -119442.91 97914.54 -119435.765 98052.654 -119465.436 98182.756 -119532.453 98266.675 -119602.659 98356.424 -119719.116 98411.601 -119849.126 98433.216 -119985.768 98422.279 -120122.117 98379.8 -120251.251 98306.79 -120366.247 98204.257 -120460.181 98135.716 -120500.325 97981.471 -120556.246 97833.572 -120571.157 97694.076 -120545.336 97565.039 -120479.061 97485.715 -120412.416 97428.441 -120352.937 97380.111 -120297.871 97354.402 -120263.806 97323.75 -120214.861 96879.25 -120398.101 96750.692 -120451.495 96635.166 -120500.231 96538.478 -120541.8 96466.431 -120573.69 96424.831 -120593.392 96417.215 -120597.931 96416.4 -120624.291 96432.651 -120674.957 96453.274 -120720.284 96506.868 -120826.047 96359.684 -121038.509 96303.179 -121120.658 96256.714 -121189.318 96224.946 -121237.53 96212.53 -121258.335 96212.5 -121258.529 96226.641 -121275.389 96265.382 -121316.288 96323.2 -121375.517 96394.573 -121447.37 96413.301 -121466.052 96614.101 -121666.017 97058.277 -121360.261 97254.514 -121437.599 97339.464 -121471.847 97409.528 -121501.529 97455.334 -121522.597 97467.495 -121529.605 97477.707 -121555.036 97493.183 -121613.497 97511.834 -121696.329 97531.571 -121794.871 97531.849 -121796.345 97579.458 -122048.417 97869.094 -122054.303 97984.712 -122056.427 98064.86 -122056.643 98116.39 -122053.985 98146.154 -122047.487 98161.004 -122036.184 98167.792 -122019.109 98169.448 -122011.969 98177.746 -121971.369 98191.549 -121900.461 98208.671 -121810.567 98220.932 -121745.25 98238.434 -121654.479 98253.759 -121580.567 98264.968 -121532.54 98269.501 -121518.944 98294.745 -121504.89 98348.459 -121480.378 98419.53 -121449.967 98496.848 -121418.216 98569.302 -121389.685 98625.781 -121368.932 98655.173 -121360.516 98655.657 -121360.5 98682.433 -121371.93 98736.12 -121403.089 98809.049 -121449.285 98893.553 -121505.823 98897.697 -121508.667 98981.358 -121565.365 99052.412 -121612.042 99103.643 -121644.061 99127.833 -121656.785 99128.289 -121656.834 99151.345 -121642.244 99195.562 -121603.305 99253.925 -121547.26 99319.418 -121481.354 99385.026 -121412.831 99443.733 -121348.935 99488.524 -121296.91 99512.382 -121264 99514.501 -121258.038 99503.001 -121229.811 99471.775 -121175.277 99425.73 -121102.558 99375.436 -121027.926 99319.129 -120945.517 99271.682 -120874.044 99238.445 -120821.701 99225.143 -120797.816 99228.195 -120767.325 99244.559 -120709.745 99269.912 -120636.468 99299.93 -120558.891 99330.291 -120488.407 99356.672 -120436.413 99369.017 -120418.584 99396.186 -120406.704 99456.477 -120389.379 99541.376 -120368.805 99642.366 -120347.178 99657.893 -120344.075 99927.25 -120290.732 99933.159 -120010.41 99936.229 -119895.297 99935.828 -119813.651" fill="none" stroke-width="10"/></g><g id="pcb-stackup_bottom_cu"><use xlink:href="#_UYCvt2uEyVH_pad-10" x="113500" y="-116100"/><use xlink:href="#_UYCvt2uEyVH_pad-11" x="113500" y="-117100"/><use xlink:href="#_UYCvt2uEyVH_pad-11" x="112500" y="-116100"/><use xlink:href="#_UYCvt2uEyVH_pad-11" x="112500" y="-117100"/><use xlink:href="#_UYCvt2uEyVH_pad-12" x="119462.4" y="-121289.6"/><use xlink:href="#_UYCvt2uEyVH_pad-12" x="119462.4" y="-118689.6"/><use xlink:href="#_UYCvt2uEyVH_pad-13" x="119712.4" y="-116179.6"/><use xlink:href="#_UYCvt2uEyVH_pad-13" x="119712.4" y="-123799.6"/><use xlink:href="#_UYCvt2uEyVH_pad-14" x="106930" y="-120290"/><use xlink:href="#_UYCvt2uEyVH_pad-14" x="105550" y="-121530"/><use xlink:href="#_UYCvt2uEyVH_pad-14" x="105550" y="-119000"/><use xlink:href="#_UYCvt2uEyVH_pad-14" x="116300.022" y="-116200"/><use xlink:href="#_UYCvt2uEyVH_pad-14" x="104000" y="-120300"/><use xlink:href="#_UYCvt2uEyVH_pad-14" x="105540" y="-120300"/><use xlink:href="#_UYCvt2uEyVH_pad-14" x="108570" y="-123380"/><use xlink:href="#_UYCvt2uEyVH_pad-14" x="114800" y="-122000"/><use xlink:href="#_UYCvt2uEyVH_pad-14" x="114800" y="-116200"/><use xlink:href="#_UYCvt2uEyVH_pad-14" x="110910" y="-117189.998"/><use xlink:href="#_UYCvt2uEyVH_pad-14" x="96300" y="-115600"/><use xlink:href="#_UYCvt2uEyVH_pad-14" x="97300" y="-115600"/><use xlink:href="#_UYCvt2uEyVH_pad-14" x="96300" y="-116500"/><use xlink:href="#_UYCvt2uEyVH_pad-14" x="97300" y="-116500"/><use xlink:href="#_UYCvt2uEyVH_pad-15" x="116300" y="-123800"/><use xlink:href="#_UYCvt2uEyVH_pad-14" x="116600" y="-121100"/><use xlink:href="#_UYCvt2uEyVH_pad-14" x="116600" y="-118900.104"/><use xlink:href="#_UYCvt2uEyVH_pad-14" x="102702.512" y="-117502.5"/><use xlink:href="#_UYCvt2uEyVH_pad-14" x="112800.015" y="-118599.985"/><use xlink:href="#_UYCvt2uEyVH_pad-14" x="108500" y="-117400"/><use xlink:href="#_UYCvt2uEyVH_pad-14" x="101100" y="-122752.4"/><use xlink:href="#_UYCvt2uEyVH_pad-14" x="110099.994" y="-121200.004"/><path d="M 114700 -116200 114800 -116200" fill="none" stroke-width="203.2"/><path d="M 114800 -116200 116300.022 -116200" fill="none" stroke-width="400"/><path d="M 102805.012 -117400 102702.512 -117502.5 M 108500 -117400 102805.012 -117400 M 101100 -119105.012 101100 -122328.136 M 102702.512 -117502.5 101100 -119105.012 M 101100 -122328.136 101100 -122752.4 M 110099.994 -120775.74 110099.994 -121200.004 M 110099.994 -118999.994 110099.994 -120775.74 M 108500 -117400 110099.994 -118999.994 M 110099.994 -121200.004 112700.013 -118599.985 112800.015 -118599.985" fill="none" stroke-width="203.2"/><path d="M 115100 -124950 95650 -124950 95650 -122683.456 100400 -122683.456 100400 -122821.344 100426.901 -122956.582 100479.668 -123083.974 100556.274 -123198.624 100653.776 -123296.126 100768.426 -123372.732 100895.818 -123425.499 101031.056 -123452.4 101168.944 -123452.4 101304.182 -123425.499 101431.574 -123372.732 101546.224 -123296.126 101643.726 -123198.624 101720.332 -123083.974 101773.099 -122956.582 101800 -122821.344 101800 -122683.456 101773.099 -122548.218 101720.332 -122420.826 101643.726 -122306.176 101601.6 -122264.05 101601.6 -119312.78 102711.882 -118202.5 102771.456 -118202.5 102906.694 -118175.599 103034.086 -118122.832 103148.736 -118046.226 103246.238 -117948.724 103277.725 -117901.6 108011.65 -117901.6 108053.776 -117943.726 108168.426 -118020.332 108295.818 -118073.099 108431.056 -118100 108490.632 -118100 109598.394 -119207.764 109598.395 -120711.653 109556.268 -120753.78 109479.662 -120868.43 109426.895 -120995.822 109399.994 -121131.06 109399.994 -121268.948 109426.895 -121404.186 109479.662 -121531.578 109556.268 -121646.228 109653.77 -121743.73 109768.42 -121820.336 109895.812 -121873.103 110031.05 -121900.004 110168.938 -121900.004 110304.176 -121873.103 110431.568 -121820.336 110546.218 -121743.73 110643.72 -121646.228 110720.326 -121531.578 110773.093 -121404.186 110799.994 -121268.948 110799.994 -121209.372 112712.981 -119296.387 112731.071 -119299.985 112868.959 -119299.985 113004.197 -119273.084 113131.589 -119220.317 113246.239 -119143.711 113343.741 -119046.209 113420.347 -118931.559 113473.114 -118804.167 113500.015 -118668.929 113500.015 -118531.041 113473.114 -118395.803 113420.347 -118268.411 113343.741 -118153.761 113246.239 -118056.259 113131.589 -117979.653 113004.197 -117926.886 112868.959 -117899.985 112731.071 -117899.985 112595.833 -117926.886 112468.441 -117979.653 112353.791 -118056.259 112256.289 -118153.761 112179.683 -118268.411 112126.916 -118395.803 112110.054 -118480.575 110601.594 -119989.035 110601.594 -119024.624 110604.02 -118999.993 110601.594 -118975.362 110601.594 -118975.353 110594.336 -118901.663 110565.654 -118807.111 110519.077 -118719.972 110456.395 -118643.593 110437.257 -118627.887 109200 -117390.632 109200 -117331.056 109173.099 -117195.818 109120.332 -117068.426 109043.726 -116953.776 108946.224 -116856.274 108831.574 -116779.668 108704.182 -116726.901 108568.944 -116700 108431.056 -116700 108295.818 -116726.901 108168.426 -116779.668 108053.776 -116856.274 108011.65 -116898.4 103058.379 -116898.4 103034.086 -116882.168 102906.694 -116829.401 102771.456 -116802.5 102633.568 -116802.5 102498.33 -116829.401 102370.938 -116882.168 102256.288 -116958.774 102158.786 -117056.276 102082.18 -117170.926 102029.413 -117298.318 102002.512 -117433.556 102002.512 -117493.13 100762.748 -118732.896 100743.599 -118748.611 100680.917 -118824.99 100634.34 -118912.13 100605.658 -119006.682 100601.765 -119046.209 100595.973 -119105.012 100598.4 -119129.65 100598.401 -122264.049 100556.274 -122306.176 100479.668 -122420.826 100426.901 -122548.218 100400 -122683.456 95650 -122683.456 95650 -116100 111671.009 -116100 111686.938 -116261.728 111734.112 -116417.241 111810.719 -116560.563 111843.084 -116600 111810.719 -116639.437 111734.112 -116782.759 111686.938 -116938.272 111671.009 -117100 111686.938 -117261.728 111734.112 -117417.241 111810.719 -117560.563 111913.815 -117686.185 112039.437 -117789.281 112182.759 -117865.888 112338.272 -117913.062 112459.479 -117925 112540.521 -117925 112661.728 -117913.062 112817.241 -117865.888 112960.563 -117789.281 113000 -117756.916 113039.437 -117789.281 113182.759 -117865.888 113338.272 -117913.062 113459.479 -117925 113540.521 -117925 113661.728 -117913.062 113817.241 -117865.888 113960.563 -117789.281 114086.185 -117686.185 114189.281 -117560.563 114265.888 -117417.241 114313.062 -117261.728 114328.991 -117100 114318.308 -116991.534 114397.264 -116912.578 114463.803 -116812.996 114509.635 -116702.347 114533 -116584.883 114533 -116406 114381 -116254 113654 -116254 113654 -116274 113346 -116274 113346 -116254 113326 -116254 113326 -116130.367 113328.991 -116100 113326 -116069.633 113326 -115946 113346 -115946 113346 -115219 113654 -115219 113654 -115946 114381 -115946 114533 -115794 114533 -115615.117 114509.635 -115497.653 114463.803 -115387.004 114397.264 -115287.422 114312.577 -115202.735 114212.996 -115136.197 114102.347 -115090.365 113984.883 -115067 113806 -115067 113654 -115219 113346 -115219 113194 -115067 113015.117 -115067 112897.653 -115090.365 112787.004 -115136.197 112687.423 -115202.735 112608.466 -115281.692 112540.521 -115275 112459.479 -115275 112338.272 -115286.938 112182.759 -115334.112 112039.437 -115410.719 111913.815 -115513.815 111810.719 -115639.437 111734.112 -115782.759 111686.938 -115938.272 111671.009 -116100 95650 -116100 95650 -115050 115100 -115050 115100 -124950 115100 -124950"/><path d="M 115100 -124950 95650 -124950 95650 -122683.456 100400 -122683.456 100400 -122821.344 100426.901 -122956.582 100479.668 -123083.974 100556.274 -123198.624 100653.776 -123296.126 100768.426 -123372.732 100895.818 -123425.499 101031.056 -123452.4 101168.944 -123452.4 101304.182 -123425.499 101431.574 -123372.732 101546.224 -123296.126 101643.726 -123198.624 101720.332 -123083.974 101773.099 -122956.582 101800 -122821.344 101800 -122683.456 101773.099 -122548.218 101720.332 -122420.826 101643.726 -122306.176 101601.6 -122264.05 101601.6 -119312.78 102711.882 -118202.5 102771.456 -118202.5 102906.694 -118175.599 103034.086 -118122.832 103148.736 -118046.226 103246.238 -117948.724 103277.725 -117901.6 108011.65 -117901.6 108053.776 -117943.726 108168.426 -118020.332 108295.818 -118073.099 108431.056 -118100 108490.632 -118100 109598.394 -119207.764 109598.395 -120711.653 109556.268 -120753.78 109479.662 -120868.43 109426.895 -120995.822 109399.994 -121131.06 109399.994 -121268.948 109426.895 -121404.186 109479.662 -121531.578 109556.268 -121646.228 109653.77 -121743.73 109768.42 -121820.336 109895.812 -121873.103 110031.05 -121900.004 110168.938 -121900.004 110304.176 -121873.103 110431.568 -121820.336 110546.218 -121743.73 110643.72 -121646.228 110720.326 -121531.578 110773.093 -121404.186 110799.994 -121268.948 110799.994 -121209.372 112712.981 -119296.387 112731.071 -119299.985 112868.959 -119299.985 113004.197 -119273.084 113131.589 -119220.317 113246.239 -119143.711 113343.741 -119046.209 113420.347 -118931.559 113473.114 -118804.167 113500.015 -118668.929 113500.015 -118531.041 113473.114 -118395.803 113420.347 -118268.411 113343.741 -118153.761 113246.239 -118056.259 113131.589 -117979.653 113004.197 -117926.886 112868.959 -117899.985 112731.071 -117899.985 112595.833 -117926.886 112468.441 -117979.653 112353.791 -118056.259 112256.289 -118153.761 112179.683 -118268.411 112126.916 -118395.803 112110.054 -118480.575 110601.594 -119989.035 110601.594 -119024.624 110604.02 -118999.993 110601.594 -118975.362 110601.594 -118975.353 110594.336 -118901.663 110565.654 -118807.111 110519.077 -118719.972 110456.395 -118643.593 110437.257 -118627.887 109200 -117390.632 109200 -117331.056 109173.099 -117195.818 109120.332 -117068.426 109043.726 -116953.776 108946.224 -116856.274 108831.574 -116779.668 108704.182 -116726.901 108568.944 -116700 108431.056 -116700 108295.818 -116726.901 108168.426 -116779.668 108053.776 -116856.274 108011.65 -116898.4 103058.379 -116898.4 103034.086 -116882.168 102906.694 -116829.401 102771.456 -116802.5 102633.568 -116802.5 102498.33 -116829.401 102370.938 -116882.168 102256.288 -116958.774 102158.786 -117056.276 102082.18 -117170.926 102029.413 -117298.318 102002.512 -117433.556 102002.512 -117493.13 100762.748 -118732.896 100743.599 -118748.611 100680.917 -118824.99 100634.34 -118912.13 100605.658 -119006.682 100601.765 -119046.209 100595.973 -119105.012 100598.4 -119129.65 100598.401 -122264.049 100556.274 -122306.176 100479.668 -122420.826 100426.901 -122548.218 100400 -122683.456 95650 -122683.456 95650 -116100 111671.009 -116100 111686.938 -116261.728 111734.112 -116417.241 111810.719 -116560.563 111843.084 -116600 111810.719 -116639.437 111734.112 -116782.759 111686.938 -116938.272 111671.009 -117100 111686.938 -117261.728 111734.112 -117417.241 111810.719 -117560.563 111913.815 -117686.185 112039.437 -117789.281 112182.759 -117865.888 112338.272 -117913.062 112459.479 -117925 112540.521 -117925 112661.728 -117913.062 112817.241 -117865.888 112960.563 -117789.281 113000 -117756.916 113039.437 -117789.281 113182.759 -117865.888 113338.272 -117913.062 113459.479 -117925 113540.521 -117925 113661.728 -117913.062 113817.241 -117865.888 113960.563 -117789.281 114086.185 -117686.185 114189.281 -117560.563 114265.888 -117417.241 114313.062 -117261.728 114328.991 -117100 114318.308 -116991.534 114397.264 -116912.578 114463.803 -116812.996 114509.635 -116702.347 114533 -116584.883 114533 -116406 114381 -116254 113654 -116254 113654 -116274 113346 -116274 113346 -116254 113326 -116254 113326 -116130.367 113328.991 -116100 113326 -116069.633 113326 -115946 113346 -115946 113346 -115219 113654 -115219 113654 -115946 114381 -115946 114533 -115794 114533 -115615.117 114509.635 -115497.653 114463.803 -115387.004 114397.264 -115287.422 114312.577 -115202.735 114212.996 -115136.197 114102.347 -115090.365 113984.883 -115067 113806 -115067 113654 -115219 113346 -115219 113194 -115067 113015.117 -115067 112897.653 -115090.365 112787.004 -115136.197 112687.423 -115202.735 112608.466 -115281.692 112540.521 -115275 112459.479 -115275 112338.272 -115286.938 112182.759 -115334.112 112039.437 -115410.719 111913.815 -115513.815 111810.719 -115639.437 111734.112 -115782.759 111686.938 -115938.272 111671.009 -116100 95650 -116100 95650 -115050 115100 -115050 115100 -124950" fill="none" stroke-width="200"/></g><g id="pcb-stackup_bottom_drl1" transform="scale(25.4,25.4)"><use xlink:href="#qzIsC0dnVh7F_pad-1" x="3791.3" y="-4551.2"/><use xlink:href="#qzIsC0dnVh7F_pad-1" x="3791.3" y="-4586.6"/><use xlink:href="#qzIsC0dnVh7F_pad-1" x="3830.7" y="-4551.2"/><use xlink:href="#qzIsC0dnVh7F_pad-1" x="3830.7" y="-4586.6"/><use xlink:href="#qzIsC0dnVh7F_pad-1" x="3980.3" y="-4832.8"/><use xlink:href="#qzIsC0dnVh7F_pad-1" x="4043.4" y="-4626.1"/><use xlink:href="#qzIsC0dnVh7F_pad-1" x="4094.5" y="-4736.2"/><use xlink:href="#qzIsC0dnVh7F_pad-1" x="4155.1" y="-4736.2"/><use xlink:href="#qzIsC0dnVh7F_pad-1" x="4155.5" y="-4685"/><use xlink:href="#qzIsC0dnVh7F_pad-1" x="4155.5" y="-4784.6"/><use xlink:href="#qzIsC0dnVh7F_pad-1" x="4209.8" y="-4735.8"/><use xlink:href="#qzIsC0dnVh7F_pad-1" x="4271.7" y="-4622"/><use xlink:href="#qzIsC0dnVh7F_pad-1" x="4274.4" y="-4857.5"/><use xlink:href="#qzIsC0dnVh7F_pad-1" x="4334.6" y="-4771.7"/><use xlink:href="#qzIsC0dnVh7F_pad-1" x="4366.5" y="-4613.8"/><use xlink:href="#qzIsC0dnVh7F_pad-1" x="4440.9" y="-4669.3"/><use xlink:href="#qzIsC0dnVh7F_pad-1" x="4519.7" y="-4574.8"/><use xlink:href="#qzIsC0dnVh7F_pad-1" x="4519.7" y="-4803.1"/><use xlink:href="#qzIsC0dnVh7F_pad-1" x="4578.7" y="-4874"/><use xlink:href="#qzIsC0dnVh7F_pad-1" x="4578.7" y="-4574.8"/><use xlink:href="#qzIsC0dnVh7F_pad-1" x="4590.6" y="-4681.1"/><use xlink:href="#qzIsC0dnVh7F_pad-1" x="4590.6" y="-4767.7"/><use xlink:href="#qzIsC0dnVh7F_pad-2" x="4429.1" y="-4570.9"/><use xlink:href="#qzIsC0dnVh7F_pad-2" x="4429.1" y="-4610.2"/><use xlink:href="#qzIsC0dnVh7F_pad-2" x="4468.5" y="-4570.9"/><use xlink:href="#qzIsC0dnVh7F_pad-2" x="4468.5" y="-4610.2"/></g><clipPath id="pcb-stackup_bottom_out"><path d="M 124200 -125400 95200 -125400 95200 -114600 124200 -114600 124200 -125400" fill="none" stroke-width="100"/></clipPath><mask id="pcb-stackup_bottom_mech-mask"><g fill="#000" stroke="#000"><rect x="95200" y="-125400" width="29000" height="10800" fill="#fff"/><use xlink:href="#pcb-stackup_bottom_drl1"/></g></mask><mask id="pcb-stackup_bottom_cf-mask"><g fill="#fff" stroke="#fff"><use xlink:href="#pcb-stackup_bottom_sm"/></g></mask><mask id="pcb-stackup_bottom_sm-mask"><g fill="#000" stroke="#000"><rect x="95200" y="-125400" width="29000" height="10800" fill="#fff"/><use xlink:href="#pcb-stackup_bottom_sm"/></g></mask></defs><g transform="translate(0,-240000) scale(1,-1)"><g mask="url(#pcb-stackup_bottom_mech-mask)" clip-path="url(#pcb-stackup_bottom_out)" transform="translate(219400,0) scale(-1,1)"><rect x="95200" y="-125400" width="29000" height="10800" fill="currentColor" class="pcb-stackup_fr4"/><use xlink:href="#pcb-stackup_bottom_cu" fill="currentColor" stroke="currentColor" class="pcb-stackup_cu"/><use xlink:href="#pcb-stackup_bottom_cu" fill="currentColor" stroke="currentColor" class="pcb-stackup_cf" mask="url(#pcb-stackup_bottom_cf-mask)"/><g mask="url(#pcb-stackup_bottom_sm-mask)"><rect x="95200" y="-125400" width="29000" height="10800" fill="currentColor" class="pcb-stackup_sm"/><use xlink:href="#pcb-stackup_bottom_ss" fill="currentColor" stroke="currentColor" class="pcb-stackup_ss"/></g><use xlink:href="#pcb-stackup_bottom_sp" fill="currentColor" stroke="currentColor" class="pcb-stackup_sp"/></g></g></svg>