<svg id="pcb-stackup_bottom" version="1.1" xmlns:xlink="http://www.w3.org/1999/xlink" stroke-linecap="round" stroke-linejoin="round" stroke-width="0" fill-rule="evenodd" clip-rule="evenodd" viewBox="96000 -109000 39000 18000" width="39mm" height="18mm" xmlns="http://www.w3.org/2000/svg"><defs><style>.pcb-stackup_fr4 {color: #4D542C;}
.pcb-stackup_cu {color: lightgrey;}
.pcb-stackup_cf {color: goldenrod;}
.pcb-stackup_sm {color: #004400; opacity: 0.9;}
.pcb-stackup_ss {color: white;}
.pcb-stackup_sp {color: #000000; opacity: 0;}
.pcb-stackup_out {color: black;}</style><circle cx="0" cy="0" r="850" id="AmgbGXX4_-F0_pad-12"/><rect x="-975" y="-850" width="1950" height="1700" rx="850" ry="850" id="AmgbGXX4_-F0_pad-13"/><rect x="-635" y="-635" width="1270" height="1270" id="AmgbGXX4_-F0_pad-14"/><circle cx="0" cy="0" r="635" id="AmgbGXX4_-F0_pad-15"/><circle cx="0" cy="0" r="1524" id="AmgbGXX4_-F0_pad-16"/><circle cx="0" cy="0" r="400" id="AmgbGXX4_-F0_pad-17"/><circle cx="0" cy="0" r="850" id="AmgbGXX4_-F0_pad-12"/><rect x="-975" y="-850" width="1950" height="1700" rx="850" ry="850" id="AmgbGXX4_-F0_pad-13"/><rect x="-635" y="-635" width="1270" height="1270" id="AmgbGXX4_-F0_pad-14"/><circle cx="0" cy="0" r="635" id="AmgbGXX4_-F0_pad-15"/><circle cx="0" cy="0" r="1524" id="AmgbGXX4_-F0_pad-16"/><circle cx="0" cy="0" r="400" id="AmgbGXX4_-F0_pad-17"/><circle cx="0" cy="0" r="850" id="nynZs0zEh18u_pad-11"/><rect x="-975" y="-850" width="1950" height="1700" rx="850" ry="850" id="nynZs0zEh18u_pad-12"/><circle cx="0" cy="0" r="2150" id="nynZs0zEh18u_pad-13"/><rect x="-635" y="-635" width="1270" height="1270" id="nynZs0zEh18u_pad-14"/><circle cx="0" cy="0" r="635" id="nynZs0zEh18u_pad-15"/><circle cx="0" cy="0" r="1524" id="nynZs0zEh18u_pad-16"/><circle cx="0" cy="0" r="850" id="AmgbGXX4_-F0_pad-12"/><rect x="-975" y="-850" width="1950" height="1700" rx="850" ry="850" id="AmgbGXX4_-F0_pad-13"/><rect x="-635" y="-635" width="1270" height="1270" id="AmgbGXX4_-F0_pad-14"/><circle cx="0" cy="0" r="635" id="AmgbGXX4_-F0_pad-15"/><circle cx="0" cy="0" r="1524" id="AmgbGXX4_-F0_pad-16"/><circle cx="0" cy="0" r="400" id="AmgbGXX4_-F0_pad-17"/><circle cx="0" cy="0" r="850" id="AmgbGXX4_-F0_pad-12"/><rect x="-975" y="-850" width="1950" height="1700" rx="850" ry="850" id="AmgbGXX4_-F0_pad-13"/><rect x="-635" y="-635" width="1270" height="1270" id="AmgbGXX4_-F0_pad-14"/><circle cx="0" cy="0" r="635" id="AmgbGXX4_-F0_pad-15"/><circle cx="0" cy="0" r="1524" id="AmgbGXX4_-F0_pad-16"/><circle cx="0" cy="0" r="400" id="AmgbGXX4_-F0_pad-17"/><circle cx="0" cy="0" r="850" id="nynZs0zEh18u_pad-11"/><rect x="-975" y="-850" width="1950" height="1700" rx="850" ry="850" id="nynZs0zEh18u_pad-12"/><circle cx="0" cy="0" r="2150" id="nynZs0zEh18u_pad-13"/><rect x="-635" y="-635" width="1270" height="1270" id="nynZs0zEh18u_pad-14"/><circle cx="0" cy="0" r="635" id="nynZs0zEh18u_pad-15"/><circle cx="0" cy="0" r="1524" id="nynZs0zEh18u_pad-16"/><circle cx="0" cy="0" r="850" id="AmgbGXX4_-F0_pad-12"/><rect x="-975" y="-850" width="1950" height="1700" rx="850" ry="850" id="AmgbGXX4_-F0_pad-13"/><rect x="-635" y="-635" width="1270" height="1270" id="AmgbGXX4_-F0_pad-14"/><circle cx="0" cy="0" r="635" id="AmgbGXX4_-F0_pad-15"/><circle cx="0" cy="0" r="1524" id="AmgbGXX4_-F0_pad-16"/><circle cx="0" cy="0" r="400" id="AmgbGXX4_-F0_pad-17"/><circle cx="0" cy="0" r="850" id="AmgbGXX4_-F0_pad-12"/><rect x="-975" y="-850" width="1950" height="1700" rx="850" ry="850" id="AmgbGXX4_-F0_pad-13"/><rect x="-635" y="-635" width="1270" height="1270" id="AmgbGXX4_-F0_pad-14"/><circle cx="0" cy="0" r="635" id="AmgbGXX4_-F0_pad-15"/><circle cx="0" cy="0" r="1524" id="AmgbGXX4_-F0_pad-16"/><circle cx="0" cy="0" r="400" id="AmgbGXX4_-F0_pad-17"/><circle cx="0" cy="0" r="850" id="nynZs0zEh18u_pad-11"/><rect x="-975" y="-850" width="1950" height="1700" rx="850" ry="850" id="nynZs0zEh18u_pad-12"/><circle cx="0" cy="0" r="2150" id="nynZs0zEh18u_pad-13"/><rect x="-635" y="-635" width="1270" height="1270" id="nynZs0zEh18u_pad-14"/><circle cx="0" cy="0" r="635" id="nynZs0zEh18u_pad-15"/><circle cx="0" cy="0" r="1524" id="nynZs0zEh18u_pad-16"/><circle cx="0" cy="0" r="850" id="AmgbGXX4_-F0_pad-12"/><rect x="-975" y="-850" width="1950" height="1700" rx="850" ry="850" id="AmgbGXX4_-F0_pad-13"/><rect x="-635" y="-635" width="1270" height="1270" id="AmgbGXX4_-F0_pad-14"/><circle cx="0" cy="0" r="635" id="AmgbGXX4_-F0_pad-15"/><circle cx="0" cy="0" r="1524" id="AmgbGXX4_-F0_pad-16"/><circle cx="0" cy="0" r="400" id="AmgbGXX4_-F0_pad-17"/><circle cx="0" cy="0" r="850" id="AmgbGXX4_-F0_pad-12"/><rect x="-975" y="-850" width="1950" height="1700" rx="850" ry="850" id="AmgbGXX4_-F0_pad-13"/><rect x="-635" y="-635" width="1270" height="1270" id="AmgbGXX4_-F0_pad-14"/><circle cx="0" cy="0" r="635" id="AmgbGXX4_-F0_pad-15"/><circle cx="0" cy="0" r="1524" id="AmgbGXX4_-F0_pad-16"/><circle cx="0" cy="0" r="400" id="AmgbGXX4_-F0_pad-17"/><circle cx="0" cy="0" r="850" id="nynZs0zEh18u_pad-11"/><rect x="-975" y="-850" width="1950" height="1700" rx="850" ry="850" id="nynZs0zEh18u_pad-12"/><circle cx="0" cy="0" r="2150" id="nynZs0zEh18u_pad-13"/><rect x="-635" y="-635" width="1270" height="1270" id="nynZs0zEh18u_pad-14"/><circle cx="0" cy="0" r="635" id="nynZs0zEh18u_pad-15"/><circle cx="0" cy="0" r="1524" id="nynZs0zEh18u_pad-16"/><circle cx="0" cy="0" r="850" id="AmgbGXX4_-F0_pad-12"/><rect x="-975" y="-850" width="1950" height="1700" rx="850" ry="850" id="AmgbGXX4_-F0_pad-13"/><rect x="-635" y="-635" width="1270" height="1270" id="AmgbGXX4_-F0_pad-14"/><circle cx="0" cy="0" r="635" id="AmgbGXX4_-F0_pad-15"/><circle cx="0" cy="0" r="1524" id="AmgbGXX4_-F0_pad-16"/><circle cx="0" cy="0" r="400" id="AmgbGXX4_-F0_pad-17"/><circle cx="0" cy="0" r="850" id="AmgbGXX4_-F0_pad-12"/><rect x="-975" y="-850" width="1950" height="1700" rx="850" ry="850" id="AmgbGXX4_-F0_pad-13"/><rect x="-635" y="-635" width="1270" height="1270" id="AmgbGXX4_-F0_pad-14"/><circle cx="0" cy="0" r="635" id="AmgbGXX4_-F0_pad-15"/><circle cx="0" cy="0" r="1524" id="AmgbGXX4_-F0_pad-16"/><circle cx="0" cy="0" r="400" id="AmgbGXX4_-F0_pad-17"/><circle cx="0" cy="0" r="850" id="nynZs0zEh18u_pad-11"/><rect x="-975" y="-850" width="1950" height="1700" rx="850" ry="850" id="nynZs0zEh18u_pad-12"/><circle cx="0" cy="0" r="2150" id="nynZs0zEh18u_pad-13"/><rect x="-635" y="-635" width="1270" height="1270" id="nynZs0zEh18u_pad-14"/><circle cx="0" cy="0" r="635" id="nynZs0zEh18u_pad-15"/><circle cx="0" cy="0" r="1524" id="nynZs0zEh18u_pad-16"/><circle cx="0" cy="0" r="850" id="AmgbGXX4_-F0_pad-12"/><rect x="-975" y="-850" width="1950" height="1700" rx="850" ry="850" id="AmgbGXX4_-F0_pad-13"/><rect x="-635" y="-635" width="1270" height="1270" id="AmgbGXX4_-F0_pad-14"/><circle cx="0" cy="0" r="635" id="AmgbGXX4_-F0_pad-15"/><circle cx="0" cy="0" r="1524" id="AmgbGXX4_-F0_pad-16"/><circle cx="0" cy="0" r="400" id="AmgbGXX4_-F0_pad-17"/><circle cx="0" cy="0" r="850" id="AmgbGXX4_-F0_pad-12"/><rect x="-975" y="-850" width="1950" height="1700" rx="850" ry="850" id="AmgbGXX4_-F0_pad-13"/><rect x="-635" y="-635" width="1270" height="1270" id="AmgbGXX4_-F0_pad-14"/><circle cx="0" cy="0" r="635" id="AmgbGXX4_-F0_pad-15"/><circle cx="0" cy="0" r="1524" id="AmgbGXX4_-F0_pad-16"/><circle cx="0" cy="0" r="400" id="AmgbGXX4_-F0_pad-17"/><circle cx="0" cy="0" r="850" id="nynZs0zEh18u_pad-11"/><rect x="-975" y="-850" width="1950" height="1700" rx="850" ry="850" id="nynZs0zEh18u_pad-12"/><circle cx="0" cy="0" r="2150" id="nynZs0zEh18u_pad-13"/><rect x="-635" y="-635" width="1270" height="1270" id="nynZs0zEh18u_pad-14"/><circle cx="0" cy="0" r="635" id="nynZs0zEh18u_pad-15"/><circle cx="0" cy="0" r="1524" id="nynZs0zEh18u_pad-16"/><circle cx="0" cy="0" r="850" id="AmgbGXX4_-F0_pad-12"/><rect x="-975" y="-850" width="1950" height="1700" rx="850" ry="850" id="AmgbGXX4_-F0_pad-13"/><rect x="-635" y="-635" width="1270" height="1270" id="AmgbGXX4_-F0_pad-14"/><circle cx="0" cy="0" r="635" id="AmgbGXX4_-F0_pad-15"/><circle cx="0" cy="0" r="1524" id="AmgbGXX4_-F0_pad-16"/><circle cx="0" cy="0" r="400" id="AmgbGXX4_-F0_pad-17"/><circle cx="0" cy="0" r="850" id="AmgbGXX4_-F0_pad-12"/><rect x="-975" y="-850" width="1950" height="1700" rx="850" ry="850" id="AmgbGXX4_-F0_pad-13"/><rect x="-635" y="-635" width="1270" height="1270" id="AmgbGXX4_-F0_pad-14"/><circle cx="0" cy="0" r="635" id="AmgbGXX4_-F0_pad-15"/><circle cx="0" cy="0" r="1524" id="AmgbGXX4_-F0_pad-16"/><circle cx="0" cy="0" r="400" id="AmgbGXX4_-F0_pad-17"/><circle cx="0" cy="0" r="850" id="nynZs0zEh18u_pad-11"/><rect x="-975" y="-850" width="1950" height="1700" rx="850" ry="850" id="nynZs0zEh18u_pad-12"/><circle cx="0" cy="0" r="2150" id="nynZs0zEh18u_pad-13"/><rect x="-635" y="-635" width="1270" height="1270" id="nynZs0zEh18u_pad-14"/><circle cx="0" cy="0" r="635" id="nynZs0zEh18u_pad-15"/><circle cx="0" cy="0" r="1524" id="nynZs0zEh18u_pad-16"/><circle cx="0" cy="0" r="850" id="AmgbGXX4_-F0_pad-12"/><rect x="-975" y="-850" width="1950" height="1700" rx="850" ry="850" id="AmgbGXX4_-F0_pad-13"/><rect x="-635" y="-635" width="1270" height="1270" id="AmgbGXX4_-F0_pad-14"/><circle cx="0" cy="0" r="635" id="AmgbGXX4_-F0_pad-15"/><circle cx="0" cy="0" r="1524" id="AmgbGXX4_-F0_pad-16"/><circle cx="0" cy="0" r="400" id="AmgbGXX4_-F0_pad-17"/><circle cx="0" cy="0" r="850" id="AmgbGXX4_-F0_pad-12"/><rect x="-975" y="-850" width="1950" height="1700" rx="850" ry="850" id="AmgbGXX4_-F0_pad-13"/><rect x="-635" y="-635" width="1270" height="1270" id="AmgbGXX4_-F0_pad-14"/><circle cx="0" cy="0" r="635" id="AmgbGXX4_-F0_pad-15"/><circle cx="0" cy="0" r="1524" id="AmgbGXX4_-F0_pad-16"/><circle cx="0" cy="0" r="400" id="AmgbGXX4_-F0_pad-17"/><circle cx="0" cy="0" r="850" id="nynZs0zEh18u_pad-11"/><rect x="-975" y="-850" width="1950" height="1700" rx="850" ry="850" id="nynZs0zEh18u_pad-12"/><circle cx="0" cy="0" r="2150" id="nynZs0zEh18u_pad-13"/><rect x="-635" y="-635" width="1270" height="1270" id="nynZs0zEh18u_pad-14"/><circle cx="0" cy="0" r="635" id="nynZs0zEh18u_pad-15"/><circle cx="0" cy="0" r="1524" id="nynZs0zEh18u_pad-16"/><circle cx="0" cy="0" r="84.65" id="jGVL8mCcYfGG_pad-1"/><circle cx="0" cy="0" r="850" id="AmgbGXX4_-F0_pad-12"/><rect x="-975" y="-850" width="1950" height="1700" rx="850" ry="850" id="AmgbGXX4_-F0_pad-13"/><rect x="-635" y="-635" width="1270" height="1270" id="AmgbGXX4_-F0_pad-14"/><circle cx="0" cy="0" r="635" id="AmgbGXX4_-F0_pad-15"/><circle cx="0" cy="0" r="1524" id="AmgbGXX4_-F0_pad-16"/><circle cx="0" cy="0" r="400" id="AmgbGXX4_-F0_pad-17"/><circle cx="0" cy="0" r="850" id="AmgbGXX4_-F0_pad-12"/><rect x="-975" y="-850" width="1950" height="1700" rx="850" ry="850" id="AmgbGXX4_-F0_pad-13"/><rect x="-635" y="-635" width="1270" height="1270" id="AmgbGXX4_-F0_pad-14"/><circle cx="0" cy="0" r="635" id="AmgbGXX4_-F0_pad-15"/><circle cx="0" cy="0" r="1524" id="AmgbGXX4_-F0_pad-16"/><circle cx="0" cy="0" r="400" id="AmgbGXX4_-F0_pad-17"/><circle cx="0" cy="0" r="850" id="nynZs0zEh18u_pad-11"/><rect x="-975" y="-850" width="1950" height="1700" rx="850" ry="850" id="nynZs0zEh18u_pad-12"/><circle cx="0" cy="0" r="2150" id="nynZs0zEh18u_pad-13"/><rect x="-635" y="-635" width="1270" height="1270" id="nynZs0zEh18u_pad-14"/><circle cx="0" cy="0" r="635" id="nynZs0zEh18u_pad-15"/><circle cx="0" cy="0" r="1524" id="nynZs0zEh18u_pad-16"/><circle cx="0" cy="0" r="850" id="AmgbGXX4_-F0_pad-12"/><rect x="-975" y="-850" width="1950" height="1700" rx="850" ry="850" id="AmgbGXX4_-F0_pad-13"/><rect x="-635" y="-635" width="1270" height="1270" id="AmgbGXX4_-F0_pad-14"/><circle cx="0" cy="0" r="635" id="AmgbGXX4_-F0_pad-15"/><circle cx="0" cy="0" r="1524" id="AmgbGXX4_-F0_pad-16"/><circle cx="0" cy="0" r="400" id="AmgbGXX4_-F0_pad-17"/><circle cx="0" cy="0" r="850" id="AmgbGXX4_-F0_pad-12"/><rect x="-975" y="-850" width="1950" height="1700" rx="850" ry="850" id="AmgbGXX4_-F0_pad-13"/><rect x="-635" y="-635" width="1270" height="1270" id="AmgbGXX4_-F0_pad-14"/><circle cx="0" cy="0" r="635" id="AmgbGXX4_-F0_pad-15"/><circle cx="0" cy="0" r="1524" id="AmgbGXX4_-F0_pad-16"/><circle cx="0" cy="0" r="400" id="AmgbGXX4_-F0_pad-17"/><circle cx="0" cy="0" r="850" id="nynZs0zEh18u_pad-11"/><rect x="-975" y="-850" width="1950" height="1700" rx="850" ry="850" id="nynZs0zEh18u_pad-12"/><circle cx="0" cy="0" r="2150" id="nynZs0zEh18u_pad-13"/><rect x="-635" y="-635" width="1270" height="1270" id="nynZs0zEh18u_pad-14"/><circle cx="0" cy="0" r="635" id="nynZs0zEh18u_pad-15"/><circle cx="0" cy="0" r="1524" id="nynZs0zEh18u_pad-16"/><circle cx="0" cy="0" r="850" id="AmgbGXX4_-F0_pad-12"/><rect x="-975" y="-850" width="1950" height="1700" rx="850" ry="850" id="AmgbGXX4_-F0_pad-13"/><rect x="-635" y="-635" width="1270" height="1270" id="AmgbGXX4_-F0_pad-14"/><circle cx="0" cy="0" r="635" id="AmgbGXX4_-F0_pad-15"/><circle cx="0" cy="0" r="1524" id="AmgbGXX4_-F0_pad-16"/><circle cx="0" cy="0" r="400" id="AmgbGXX4_-F0_pad-17"/><circle cx="0" cy="0" r="850" id="AmgbGXX4_-F0_pad-12"/><rect x="-975" y="-850" width="1950" height="1700" rx="850" ry="850" id="AmgbGXX4_-F0_pad-13"/><rect x="-635" y="-635" width="1270" height="1270" id="AmgbGXX4_-F0_pad-14"/><circle cx="0" cy="0" r="635" id="AmgbGXX4_-F0_pad-15"/><circle cx="0" cy="0" r="1524" id="AmgbGXX4_-F0_pad-16"/><circle cx="0" cy="0" r="400" id="AmgbGXX4_-F0_pad-17"/><circle cx="0" cy="0" r="850" id="nynZs0zEh18u_pad-11"/><rect x="-975" y="-850" width="1950" height="1700" rx="850" ry="850" id="nynZs0zEh18u_pad-12"/><circle cx="0" cy="0" r="2150" id="nynZs0zEh18u_pad-13"/><rect x="-635" y="-635" width="1270" height="1270" id="nynZs0zEh18u_pad-14"/><circle cx="0" cy="0" r="635" id="nynZs0zEh18u_pad-15"/><circle cx="0" cy="0" r="1524" id="nynZs0zEh18u_pad-16"/><circle cx="0" cy="0" r="850" id="AmgbGXX4_-F0_pad-12"/><rect x="-975" y="-850" width="1950" height="1700" rx="850" ry="850" id="AmgbGXX4_-F0_pad-13"/><rect x="-635" y="-635" width="1270" height="1270" id="AmgbGXX4_-F0_pad-14"/><circle cx="0" cy="0" r="635" id="AmgbGXX4_-F0_pad-15"/><circle cx="0" cy="0" r="1524" id="AmgbGXX4_-F0_pad-16"/><circle cx="0" cy="0" r="400" id="AmgbGXX4_-F0_pad-17"/><circle cx="0" cy="0" r="850" id="AmgbGXX4_-F0_pad-12"/><rect x="-975" y="-850" width="1950" height="1700" rx="850" ry="850" id="AmgbGXX4_-F0_pad-13"/><rect x="-635" y="-635" width="1270" height="1270" id="AmgbGXX4_-F0_pad-14"/><circle cx="0" cy="0" r="635" id="AmgbGXX4_-F0_pad-15"/><circle cx="0" cy="0" r="1524" id="AmgbGXX4_-F0_pad-16"/><circle cx="0" cy="0" r="400" id="AmgbGXX4_-F0_pad-17"/><circle cx="0" cy="0" r="850" id="nynZs0zEh18u_pad-11"/><rect x="-975" y="-850" width="1950" height="1700" rx="850" ry="850" id="nynZs0zEh18u_pad-12"/><circle cx="0" cy="0" r="2150" id="nynZs0zEh18u_pad-13"/><rect x="-635" y="-635" width="1270" height="1270" id="nynZs0zEh18u_pad-14"/><circle cx="0" cy="0" r="635" id="nynZs0zEh18u_pad-15"/><circle cx="0" cy="0" r="1524" id="nynZs0zEh18u_pad-16"/><circle cx="0" cy="0" r="850" id="AmgbGXX4_-F0_pad-12"/><rect x="-975" y="-850" width="1950" height="1700" rx="850" ry="850" id="AmgbGXX4_-F0_pad-13"/><rect x="-635" y="-635" width="1270" height="1270" id="AmgbGXX4_-F0_pad-14"/><circle cx="0" cy="0" r="635" id="AmgbGXX4_-F0_pad-15"/><circle cx="0" cy="0" r="1524" id="AmgbGXX4_-F0_pad-16"/><circle cx="0" cy="0" r="400" id="AmgbGXX4_-F0_pad-17"/><circle cx="0" cy="0" r="850" id="AmgbGXX4_-F0_pad-12"/><rect x="-975" y="-850" width="1950" height="1700" rx="850" ry="850" id="AmgbGXX4_-F0_pad-13"/><rect x="-635" y="-635" width="1270" height="1270" id="AmgbGXX4_-F0_pad-14"/><circle cx="0" cy="0" r="635" id="AmgbGXX4_-F0_pad-15"/><circle cx="0" cy="0" r="1524" id="AmgbGXX4_-F0_pad-16"/><circle cx="0" cy="0" r="400" id="AmgbGXX4_-F0_pad-17"/><circle cx="0" cy="0" r="850" id="nynZs0zEh18u_pad-11"/><rect x="-975" y="-850" width="1950" height="1700" rx="850" ry="850" id="nynZs0zEh18u_pad-12"/><circle cx="0" cy="0" r="2150" id="nynZs0zEh18u_pad-13"/><rect x="-635" y="-635" width="1270" height="1270" id="nynZs0zEh18u_pad-14"/><circle cx="0" cy="0" r="635" id="nynZs0zEh18u_pad-15"/><circle cx="0" cy="0" r="1524" id="nynZs0zEh18u_pad-16"/><circle cx="0" cy="0" r="850" id="AmgbGXX4_-F0_pad-12"/><rect x="-975" y="-850" width="1950" height="1700" rx="850" ry="850" id="AmgbGXX4_-F0_pad-13"/><rect x="-635" y="-635" width="1270" height="1270" id="AmgbGXX4_-F0_pad-14"/><circle cx="0" cy="0" r="635" id="AmgbGXX4_-F0_pad-15"/><circle cx="0" cy="0" r="1524" id="AmgbGXX4_-F0_pad-16"/><circle cx="0" cy="0" r="400" id="AmgbGXX4_-F0_pad-17"/><circle cx="0" cy="0" r="850" id="AmgbGXX4_-F0_pad-12"/><rect x="-975" y="-850" width="1950" height="1700" rx="850" ry="850" id="AmgbGXX4_-F0_pad-13"/><rect x="-635" y="-635" width="1270" height="1270" id="AmgbGXX4_-F0_pad-14"/><circle cx="0" cy="0" r="635" id="AmgbGXX4_-F0_pad-15"/><circle cx="0" cy="0" r="1524" id="AmgbGXX4_-F0_pad-16"/><circle cx="0" cy="0" r="400" id="AmgbGXX4_-F0_pad-17"/><circle cx="0" cy="0" r="850" id="nynZs0zEh18u_pad-11"/><rect x="-975" y="-850" width="1950" height="1700" rx="850" ry="850" id="nynZs0zEh18u_pad-12"/><circle cx="0" cy="0" r="2150" id="nynZs0zEh18u_pad-13"/><rect x="-635" y="-635" width="1270" height="1270" id="nynZs0zEh18u_pad-14"/><circle cx="0" cy="0" r="635" id="nynZs0zEh18u_pad-15"/><circle cx="0" cy="0" r="1524" id="nynZs0zEh18u_pad-16"/><circle cx="0" cy="0" r="850" id="AmgbGXX4_-F0_pad-12"/><rect x="-975" y="-850" width="1950" height="1700" rx="850" ry="850" id="AmgbGXX4_-F0_pad-13"/><rect x="-635" y="-635" width="1270" height="1270" id="AmgbGXX4_-F0_pad-14"/><circle cx="0" cy="0" r="635" id="AmgbGXX4_-F0_pad-15"/><circle cx="0" cy="0" r="1524" id="AmgbGXX4_-F0_pad-16"/><circle cx="0" cy="0" r="400" id="AmgbGXX4_-F0_pad-17"/><circle cx="0" cy="0" r="850" id="AmgbGXX4_-F0_pad-12"/><rect x="-975" y="-850" width="1950" height="1700" rx="850" ry="850" id="AmgbGXX4_-F0_pad-13"/><rect x="-635" y="-635" width="1270" height="1270" id="AmgbGXX4_-F0_pad-14"/><circle cx="0" cy="0" r="635" id="AmgbGXX4_-F0_pad-15"/><circle cx="0" cy="0" r="1524" id="AmgbGXX4_-F0_pad-16"/><circle cx="0" cy="0" r="400" id="AmgbGXX4_-F0_pad-17"/><circle cx="0" cy="0" r="850" id="nynZs0zEh18u_pad-11"/><rect x="-975" y="-850" width="1950" height="1700" rx="850" ry="850" id="nynZs0zEh18u_pad-12"/><circle cx="0" cy="0" r="2150" id="nynZs0zEh18u_pad-13"/><rect x="-635" y="-635" width="1270" height="1270" id="nynZs0zEh18u_pad-14"/><circle cx="0" cy="0" r="635" id="nynZs0zEh18u_pad-15"/><circle cx="0" cy="0" r="1524" id="nynZs0zEh18u_pad-16"/><circle cx="0" cy="0" r="850" id="AmgbGXX4_-F0_pad-12"/><rect x="-975" y="-850" width="1950" height="1700" rx="850" ry="850" id="AmgbGXX4_-F0_pad-13"/><rect x="-635" y="-635" width="1270" height="1270" id="AmgbGXX4_-F0_pad-14"/><circle cx="0" cy="0" r="635" id="AmgbGXX4_-F0_pad-15"/><circle cx="0" cy="0" r="1524" id="AmgbGXX4_-F0_pad-16"/><circle cx="0" cy="0" r="400" id="AmgbGXX4_-F0_pad-17"/><circle cx="0" cy="0" r="850" id="AmgbGXX4_-F0_pad-12"/><rect x="-975" y="-850" width="1950" height="1700" rx="850" ry="850" id="AmgbGXX4_-F0_pad-13"/><rect x="-635" y="-635" width="1270" height="1270" id="AmgbGXX4_-F0_pad-14"/><circle cx="0" cy="0" r="635" id="AmgbGXX4_-F0_pad-15"/><circle cx="0" cy="0" r="1524" id="AmgbGXX4_-F0_pad-16"/><circle cx="0" cy="0" r="400" id="AmgbGXX4_-F0_pad-17"/><circle cx="0" cy="0" r="850" id="nynZs0zEh18u_pad-11"/><rect x="-975" y="-850" width="1950" height="1700" rx="850" ry="850" id="nynZs0zEh18u_pad-12"/><circle cx="0" cy="0" r="2150" id="nynZs0zEh18u_pad-13"/><rect x="-635" y="-635" width="1270" height="1270" id="nynZs0zEh18u_pad-14"/><circle cx="0" cy="0" r="635" id="nynZs0zEh18u_pad-15"/><circle cx="0" cy="0" r="1524" id="nynZs0zEh18u_pad-16"/><circle cx="0" cy="0" r="84.65" id="jGVL8mCcYfGG_pad-1"/><circle cx="0" cy="0" r="7.85" id="NTtqUJ3OQqD3_pad-1"/><circle cx="0" cy="0" r="12.5" id="NTtqUJ3OQqD3_pad-2"/><circle cx="0" cy="0" r="18.7" id="NTtqUJ3OQqD3_pad-3"/><circle cx="0" cy="0" r="37.5" id="NTtqUJ3OQqD3_pad-4"/><circle cx="0" cy="0" r="850" id="AmgbGXX4_-F0_pad-12"/><rect x="-975" y="-850" width="1950" height="1700" rx="850" ry="850" id="AmgbGXX4_-F0_pad-13"/><rect x="-635" y="-635" width="1270" height="1270" id="AmgbGXX4_-F0_pad-14"/><circle cx="0" cy="0" r="635" id="AmgbGXX4_-F0_pad-15"/><circle cx="0" cy="0" r="1524" id="AmgbGXX4_-F0_pad-16"/><circle cx="0" cy="0" r="400" id="AmgbGXX4_-F0_pad-17"/><circle cx="0" cy="0" r="850" id="AmgbGXX4_-F0_pad-12"/><rect x="-975" y="-850" width="1950" height="1700" rx="850" ry="850" id="AmgbGXX4_-F0_pad-13"/><rect x="-635" y="-635" width="1270" height="1270" id="AmgbGXX4_-F0_pad-14"/><circle cx="0" cy="0" r="635" id="AmgbGXX4_-F0_pad-15"/><circle cx="0" cy="0" r="1524" id="AmgbGXX4_-F0_pad-16"/><circle cx="0" cy="0" r="400" id="AmgbGXX4_-F0_pad-17"/><circle cx="0" cy="0" r="850" id="nynZs0zEh18u_pad-11"/><rect x="-975" y="-850" width="1950" height="1700" rx="850" ry="850" id="nynZs0zEh18u_pad-12"/><circle cx="0" cy="0" r="2150" id="nynZs0zEh18u_pad-13"/><rect x="-635" y="-635" width="1270" height="1270" id="nynZs0zEh18u_pad-14"/><circle cx="0" cy="0" r="635" id="nynZs0zEh18u_pad-15"/><circle cx="0" cy="0" r="1524" id="nynZs0zEh18u_pad-16"/><circle cx="0" cy="0" r="850" id="AmgbGXX4_-F0_pad-12"/><rect x="-975" y="-850" width="1950" height="1700" rx="850" ry="850" id="AmgbGXX4_-F0_pad-13"/><rect x="-635" y="-635" width="1270" height="1270" id="AmgbGXX4_-F0_pad-14"/><circle cx="0" cy="0" r="635" id="AmgbGXX4_-F0_pad-15"/><circle cx="0" cy="0" r="1524" id="AmgbGXX4_-F0_pad-16"/><circle cx="0" cy="0" r="400" id="AmgbGXX4_-F0_pad-17"/><circle cx="0" cy="0" r="850" id="AmgbGXX4_-F0_pad-12"/><rect x="-975" y="-850" width="1950" height="1700" rx="850" ry="850" id="AmgbGXX4_-F0_pad-13"/><rect x="-635" y="-635" width="1270" height="1270" id="AmgbGXX4_-F0_pad-14"/><circle cx="0" cy="0" r="635" id="AmgbGXX4_-F0_pad-15"/><circle cx="0" cy="0" r="1524" id="AmgbGXX4_-F0_pad-16"/><circle cx="0" cy="0" r="400" id="AmgbGXX4_-F0_pad-17"/><circle cx="0" cy="0" r="850" id="nynZs0zEh18u_pad-11"/><rect x="-975" y="-850" width="1950" height="1700" rx="850" ry="850" id="nynZs0zEh18u_pad-12"/><circle cx="0" cy="0" r="2150" id="nynZs0zEh18u_pad-13"/><rect x="-635" y="-635" width="1270" height="1270" id="nynZs0zEh18u_pad-14"/><circle cx="0" cy="0" r="635" id="nynZs0zEh18u_pad-15"/><circle cx="0" cy="0" r="1524" id="nynZs0zEh18u_pad-16"/><circle cx="0" cy="0" r="850" id="AmgbGXX4_-F0_pad-12"/><rect x="-975" y="-850" width="1950" height="1700" rx="850" ry="850" id="AmgbGXX4_-F0_pad-13"/><rect x="-635" y="-635" width="1270" height="1270" id="AmgbGXX4_-F0_pad-14"/><circle cx="0" cy="0" r="635" id="AmgbGXX4_-F0_pad-15"/><circle cx="0" cy="0" r="1524" id="AmgbGXX4_-F0_pad-16"/><circle cx="0" cy="0" r="400" id="AmgbGXX4_-F0_pad-17"/><circle cx="0" cy="0" r="850" id="AmgbGXX4_-F0_pad-12"/><rect x="-975" y="-850" width="1950" height="1700" rx="850" ry="850" id="AmgbGXX4_-F0_pad-13"/><rect x="-635" y="-635" width="1270" height="1270" id="AmgbGXX4_-F0_pad-14"/><circle cx="0" cy="0" r="635" id="AmgbGXX4_-F0_pad-15"/><circle cx="0" cy="0" r="1524" id="AmgbGXX4_-F0_pad-16"/><circle cx="0" cy="0" r="400" id="AmgbGXX4_-F0_pad-17"/><circle cx="0" cy="0" r="850" id="nynZs0zEh18u_pad-11"/><rect x="-975" y="-850" width="1950" height="1700" rx="850" ry="850" id="nynZs0zEh18u_pad-12"/><circle cx="0" cy="0" r="2150" id="nynZs0zEh18u_pad-13"/><rect x="-635" y="-635" width="1270" height="1270" id="nynZs0zEh18u_pad-14"/><circle cx="0" cy="0" r="635" id="nynZs0zEh18u_pad-15"/><circle cx="0" cy="0" r="1524" id="nynZs0zEh18u_pad-16"/><circle cx="0" cy="0" r="850" id="AmgbGXX4_-F0_pad-12"/><rect x="-975" y="-850" width="1950" height="1700" rx="850" ry="850" id="AmgbGXX4_-F0_pad-13"/><rect x="-635" y="-635" width="1270" height="1270" id="AmgbGXX4_-F0_pad-14"/><circle cx="0" cy="0" r="635" id="AmgbGXX4_-F0_pad-15"/><circle cx="0" cy="0" r="1524" id="AmgbGXX4_-F0_pad-16"/><circle cx="0" cy="0" r="400" id="AmgbGXX4_-F0_pad-17"/><circle cx="0" cy="0" r="850" id="AmgbGXX4_-F0_pad-12"/><rect x="-975" y="-850" width="1950" height="1700" rx="850" ry="850" id="AmgbGXX4_-F0_pad-13"/><rect x="-635" y="-635" width="1270" height="1270" id="AmgbGXX4_-F0_pad-14"/><circle cx="0" cy="0" r="635" id="AmgbGXX4_-F0_pad-15"/><circle cx="0" cy="0" r="1524" id="AmgbGXX4_-F0_pad-16"/><circle cx="0" cy="0" r="400" id="AmgbGXX4_-F0_pad-17"/><circle cx="0" cy="0" r="850" id="nynZs0zEh18u_pad-11"/><rect x="-975" y="-850" width="1950" height="1700" rx="850" ry="850" id="nynZs0zEh18u_pad-12"/><circle cx="0" cy="0" r="2150" id="nynZs0zEh18u_pad-13"/><rect x="-635" y="-635" width="1270" height="1270" id="nynZs0zEh18u_pad-14"/><circle cx="0" cy="0" r="635" id="nynZs0zEh18u_pad-15"/><circle cx="0" cy="0" r="1524" id="nynZs0zEh18u_pad-16"/><circle cx="0" cy="0" r="850" id="AmgbGXX4_-F0_pad-12"/><rect x="-975" y="-850" width="1950" height="1700" rx="850" ry="850" id="AmgbGXX4_-F0_pad-13"/><rect x="-635" y="-635" width="1270" height="1270" id="AmgbGXX4_-F0_pad-14"/><circle cx="0" cy="0" r="635" id="AmgbGXX4_-F0_pad-15"/><circle cx="0" cy="0" r="1524" id="AmgbGXX4_-F0_pad-16"/><circle cx="0" cy="0" r="400" id="AmgbGXX4_-F0_pad-17"/><circle cx="0" cy="0" r="850" id="AmgbGXX4_-F0_pad-12"/><rect x="-975" y="-850" width="1950" height="1700" rx="850" ry="850" id="AmgbGXX4_-F0_pad-13"/><rect x="-635" y="-635" width="1270" height="1270" id="AmgbGXX4_-F0_pad-14"/><circle cx="0" cy="0" r="635" id="AmgbGXX4_-F0_pad-15"/><circle cx="0" cy="0" r="1524" id="AmgbGXX4_-F0_pad-16"/><circle cx="0" cy="0" r="400" id="AmgbGXX4_-F0_pad-17"/><circle cx="0" cy="0" r="850" id="nynZs0zEh18u_pad-11"/><rect x="-975" y="-850" width="1950" height="1700" rx="850" ry="850" id="nynZs0zEh18u_pad-12"/><circle cx="0" cy="0" r="2150" id="nynZs0zEh18u_pad-13"/><rect x="-635" y="-635" width="1270" height="1270" id="nynZs0zEh18u_pad-14"/><circle cx="0" cy="0" r="635" id="nynZs0zEh18u_pad-15"/><circle cx="0" cy="0" r="1524" id="nynZs0zEh18u_pad-16"/><circle cx="0" cy="0" r="850" id="AmgbGXX4_-F0_pad-12"/><rect x="-975" y="-850" width="1950" height="1700" rx="850" ry="850" id="AmgbGXX4_-F0_pad-13"/><rect x="-635" y="-635" width="1270" height="1270" id="AmgbGXX4_-F0_pad-14"/><circle cx="0" cy="0" r="635" id="AmgbGXX4_-F0_pad-15"/><circle cx="0" cy="0" r="1524" id="AmgbGXX4_-F0_pad-16"/><circle cx="0" cy="0" r="400" id="AmgbGXX4_-F0_pad-17"/><circle cx="0" cy="0" r="850" id="AmgbGXX4_-F0_pad-12"/><rect x="-975" y="-850" width="1950" height="1700" rx="850" ry="850" id="AmgbGXX4_-F0_pad-13"/><rect x="-635" y="-635" width="1270" height="1270" id="AmgbGXX4_-F0_pad-14"/><circle cx="0" cy="0" r="635" id="AmgbGXX4_-F0_pad-15"/><circle cx="0" cy="0" r="1524" id="AmgbGXX4_-F0_pad-16"/><circle cx="0" cy="0" r="400" id="AmgbGXX4_-F0_pad-17"/><circle cx="0" cy="0" r="850" id="nynZs0zEh18u_pad-11"/><rect x="-975" y="-850" width="1950" height="1700" rx="850" ry="850" id="nynZs0zEh18u_pad-12"/><circle cx="0" cy="0" r="2150" id="nynZs0zEh18u_pad-13"/><rect x="-635" y="-635" width="1270" height="1270" id="nynZs0zEh18u_pad-14"/><circle cx="0" cy="0" r="635" id="nynZs0zEh18u_pad-15"/><circle cx="0" cy="0" r="1524" id="nynZs0zEh18u_pad-16"/><circle cx="0" cy="0" r="850" id="AmgbGXX4_-F0_pad-12"/><rect x="-975" y="-850" width="1950" height="1700" rx="850" ry="850" id="AmgbGXX4_-F0_pad-13"/><rect x="-635" y="-635" width="1270" height="1270" id="AmgbGXX4_-F0_pad-14"/><circle cx="0" cy="0" r="635" id="AmgbGXX4_-F0_pad-15"/><circle cx="0" cy="0" r="1524" id="AmgbGXX4_-F0_pad-16"/><circle cx="0" cy="0" r="400" id="AmgbGXX4_-F0_pad-17"/><circle cx="0" cy="0" r="850" id="AmgbGXX4_-F0_pad-12"/><rect x="-975" y="-850" width="1950" height="1700" rx="850" ry="850" id="AmgbGXX4_-F0_pad-13"/><rect x="-635" y="-635" width="1270" height="1270" id="AmgbGXX4_-F0_pad-14"/><circle cx="0" cy="0" r="635" id="AmgbGXX4_-F0_pad-15"/><circle cx="0" cy="0" r="1524" id="AmgbGXX4_-F0_pad-16"/><circle cx="0" cy="0" r="400" id="AmgbGXX4_-F0_pad-17"/><circle cx="0" cy="0" r="850" id="nynZs0zEh18u_pad-11"/><rect x="-975" y="-850" width="1950" height="1700" rx="850" ry="850" id="nynZs0zEh18u_pad-12"/><circle cx="0" cy="0" r="2150" id="nynZs0zEh18u_pad-13"/><rect x="-635" y="-635" width="1270" height="1270" id="nynZs0zEh18u_pad-14"/><circle cx="0" cy="0" r="635" id="nynZs0zEh18u_pad-15"/><circle cx="0" cy="0" r="1524" id="nynZs0zEh18u_pad-16"/><circle cx="0" cy="0" r="850" id="AmgbGXX4_-F0_pad-12"/><rect x="-975" y="-850" width="1950" height="1700" rx="850" ry="850" id="AmgbGXX4_-F0_pad-13"/><rect x="-635" y="-635" width="1270" height="1270" id="AmgbGXX4_-F0_pad-14"/><circle cx="0" cy="0" r="635" id="AmgbGXX4_-F0_pad-15"/><circle cx="0" cy="0" r="1524" id="AmgbGXX4_-F0_pad-16"/><circle cx="0" cy="0" r="400" id="AmgbGXX4_-F0_pad-17"/><circle cx="0" cy="0" r="850" id="AmgbGXX4_-F0_pad-12"/><rect x="-975" y="-850" width="1950" height="1700" rx="850" ry="850" id="AmgbGXX4_-F0_pad-13"/><rect x="-635" y="-635" width="1270" height="1270" id="AmgbGXX4_-F0_pad-14"/><circle cx="0" cy="0" r="635" id="AmgbGXX4_-F0_pad-15"/><circle cx="0" cy="0" r="1524" id="AmgbGXX4_-F0_pad-16"/><circle cx="0" cy="0" r="400" id="AmgbGXX4_-F0_pad-17"/><circle cx="0" cy="0" r="850" id="nynZs0zEh18u_pad-11"/><rect x="-975" y="-850" width="1950" height="1700" rx="850" ry="850" id="nynZs0zEh18u_pad-12"/><circle cx="0" cy="0" r="2150" id="nynZs0zEh18u_pad-13"/><rect x="-635" y="-635" width="1270" height="1270" id="nynZs0zEh18u_pad-14"/><circle cx="0" cy="0" r="635" id="nynZs0zEh18u_pad-15"/><circle cx="0" cy="0" r="1524" id="nynZs0zEh18u_pad-16"/><circle cx="0" cy="0" r="84.65" id="jGVL8mCcYfGG_pad-1"/><circle cx="0" cy="0" r="850" id="AmgbGXX4_-F0_pad-12"/><rect x="-975" y="-850" width="1950" height="1700" rx="850" ry="850" id="AmgbGXX4_-F0_pad-13"/><rect x="-635" y="-635" width="1270" height="1270" id="AmgbGXX4_-F0_pad-14"/><circle cx="0" cy="0" r="635" id="AmgbGXX4_-F0_pad-15"/><circle cx="0" cy="0" r="1524" id="AmgbGXX4_-F0_pad-16"/><circle cx="0" cy="0" r="400" id="AmgbGXX4_-F0_pad-17"/><circle cx="0" cy="0" r="850" id="AmgbGXX4_-F0_pad-12"/><rect x="-975" y="-850" width="1950" height="1700" rx="850" ry="850" id="AmgbGXX4_-F0_pad-13"/><rect x="-635" y="-635" width="1270" height="1270" id="AmgbGXX4_-F0_pad-14"/><circle cx="0" cy="0" r="635" id="AmgbGXX4_-F0_pad-15"/><circle cx="0" cy="0" r="1524" id="AmgbGXX4_-F0_pad-16"/><circle cx="0" cy="0" r="400" id="AmgbGXX4_-F0_pad-17"/><circle cx="0" cy="0" r="850" id="nynZs0zEh18u_pad-11"/><rect x="-975" y="-850" width="1950" height="1700" rx="850" ry="850" id="nynZs0zEh18u_pad-12"/><circle cx="0" cy="0" r="2150" id="nynZs0zEh18u_pad-13"/><rect x="-635" y="-635" width="1270" height="1270" id="nynZs0zEh18u_pad-14"/><circle cx="0" cy="0" r="635" id="nynZs0zEh18u_pad-15"/><circle cx="0" cy="0" r="1524" id="nynZs0zEh18u_pad-16"/><circle cx="0" cy="0" r="850" id="AmgbGXX4_-F0_pad-12"/><rect x="-975" y="-850" width="1950" height="1700" rx="850" ry="850" id="AmgbGXX4_-F0_pad-13"/><rect x="-635" y="-635" width="1270" height="1270" id="AmgbGXX4_-F0_pad-14"/><circle cx="0" cy="0" r="635" id="AmgbGXX4_-F0_pad-15"/><circle cx="0" cy="0" r="1524" id="AmgbGXX4_-F0_pad-16"/><circle cx="0" cy="0" r="400" id="AmgbGXX4_-F0_pad-17"/><circle cx="0" cy="0" r="850" id="AmgbGXX4_-F0_pad-12"/><rect x="-975" y="-850" width="1950" height="1700" rx="850" ry="850" id="AmgbGXX4_-F0_pad-13"/><rect x="-635" y="-635" width="1270" height="1270" id="AmgbGXX4_-F0_pad-14"/><circle cx="0" cy="0" r="635" id="AmgbGXX4_-F0_pad-15"/><circle cx="0" cy="0" r="1524" id="AmgbGXX4_-F0_pad-16"/><circle cx="0" cy="0" r="400" id="AmgbGXX4_-F0_pad-17"/><circle cx="0" cy="0" r="850" id="nynZs0zEh18u_pad-11"/><rect x="-975" y="-850" width="1950" height="1700" rx="850" ry="850" id="nynZs0zEh18u_pad-12"/><circle cx="0" cy="0" r="2150" id="nynZs0zEh18u_pad-13"/><rect x="-635" y="-635" width="1270" height="1270" id="nynZs0zEh18u_pad-14"/><circle cx="0" cy="0" r="635" id="nynZs0zEh18u_pad-15"/><circle cx="0" cy="0" r="1524" id="nynZs0zEh18u_pad-16"/><circle cx="0" cy="0" r="850" id="AmgbGXX4_-F0_pad-12"/><rect x="-975" y="-850" width="1950" height="1700" rx="850" ry="850" id="AmgbGXX4_-F0_pad-13"/><rect x="-635" y="-635" width="1270" height="1270" id="AmgbGXX4_-F0_pad-14"/><circle cx="0" cy="0" r="635" id="AmgbGXX4_-F0_pad-15"/><circle cx="0" cy="0" r="1524" id="AmgbGXX4_-F0_pad-16"/><circle cx="0" cy="0" r="400" id="AmgbGXX4_-F0_pad-17"/><circle cx="0" cy="0" r="850" id="AmgbGXX4_-F0_pad-12"/><rect x="-975" y="-850" width="1950" height="1700" rx="850" ry="850" id="AmgbGXX4_-F0_pad-13"/><rect x="-635" y="-635" width="1270" height="1270" id="AmgbGXX4_-F0_pad-14"/><circle cx="0" cy="0" r="635" id="AmgbGXX4_-F0_pad-15"/><circle cx="0" cy="0" r="1524" id="AmgbGXX4_-F0_pad-16"/><circle cx="0" cy="0" r="400" id="AmgbGXX4_-F0_pad-17"/><circle cx="0" cy="0" r="850" id="nynZs0zEh18u_pad-11"/><rect x="-975" y="-850" width="1950" height="1700" rx="850" ry="850" id="nynZs0zEh18u_pad-12"/><circle cx="0" cy="0" r="2150" id="nynZs0zEh18u_pad-13"/><rect x="-635" y="-635" width="1270" height="1270" id="nynZs0zEh18u_pad-14"/><circle cx="0" cy="0" r="635" id="nynZs0zEh18u_pad-15"/><circle cx="0" cy="0" r="1524" id="nynZs0zEh18u_pad-16"/><circle cx="0" cy="0" r="850" id="AmgbGXX4_-F0_pad-12"/><rect x="-975" y="-850" width="1950" height="1700" rx="850" ry="850" id="AmgbGXX4_-F0_pad-13"/><rect x="-635" y="-635" width="1270" height="1270" id="AmgbGXX4_-F0_pad-14"/><circle cx="0" cy="0" r="635" id="AmgbGXX4_-F0_pad-15"/><circle cx="0" cy="0" r="1524" id="AmgbGXX4_-F0_pad-16"/><circle cx="0" cy="0" r="400" id="AmgbGXX4_-F0_pad-17"/><circle cx="0" cy="0" r="850" id="AmgbGXX4_-F0_pad-12"/><rect x="-975" y="-850" width="1950" height="1700" rx="850" ry="850" id="AmgbGXX4_-F0_pad-13"/><rect x="-635" y="-635" width="1270" height="1270" id="AmgbGXX4_-F0_pad-14"/><circle cx="0" cy="0" r="635" id="AmgbGXX4_-F0_pad-15"/><circle cx="0" cy="0" r="1524" id="AmgbGXX4_-F0_pad-16"/><circle cx="0" cy="0" r="400" id="AmgbGXX4_-F0_pad-17"/><circle cx="0" cy="0" r="850" id="nynZs0zEh18u_pad-11"/><rect x="-975" y="-850" width="1950" height="1700" rx="850" ry="850" id="nynZs0zEh18u_pad-12"/><circle cx="0" cy="0" r="2150" id="nynZs0zEh18u_pad-13"/><rect x="-635" y="-635" width="1270" height="1270" id="nynZs0zEh18u_pad-14"/><circle cx="0" cy="0" r="635" id="nynZs0zEh18u_pad-15"/><circle cx="0" cy="0" r="1524" id="nynZs0zEh18u_pad-16"/><circle cx="0" cy="0" r="850" id="AmgbGXX4_-F0_pad-12"/><rect x="-975" y="-850" width="1950" height="1700" rx="850" ry="850" id="AmgbGXX4_-F0_pad-13"/><rect x="-635" y="-635" width="1270" height="1270" id="AmgbGXX4_-F0_pad-14"/><circle cx="0" cy="0" r="635" id="AmgbGXX4_-F0_pad-15"/><circle cx="0" cy="0" r="1524" id="AmgbGXX4_-F0_pad-16"/><circle cx="0" cy="0" r="400" id="AmgbGXX4_-F0_pad-17"/><circle cx="0" cy="0" r="850" id="AmgbGXX4_-F0_pad-12"/><rect x="-975" y="-850" width="1950" height="1700" rx="850" ry="850" id="AmgbGXX4_-F0_pad-13"/><rect x="-635" y="-635" width="1270" height="1270" id="AmgbGXX4_-F0_pad-14"/><circle cx="0" cy="0" r="635" id="AmgbGXX4_-F0_pad-15"/><circle cx="0" cy="0" r="1524" id="AmgbGXX4_-F0_pad-16"/><circle cx="0" cy="0" r="400" id="AmgbGXX4_-F0_pad-17"/><circle cx="0" cy="0" r="850" id="nynZs0zEh18u_pad-11"/><rect x="-975" y="-850" width="1950" height="1700" rx="850" ry="850" id="nynZs0zEh18u_pad-12"/><circle cx="0" cy="0" r="2150" id="nynZs0zEh18u_pad-13"/><rect x="-635" y="-635" width="1270" height="1270" id="nynZs0zEh18u_pad-14"/><circle cx="0" cy="0" r="635" id="nynZs0zEh18u_pad-15"/><circle cx="0" cy="0" r="1524" id="nynZs0zEh18u_pad-16"/><circle cx="0" cy="0" r="850" id="AmgbGXX4_-F0_pad-12"/><rect x="-975" y="-850" width="1950" height="1700" rx="850" ry="850" id="AmgbGXX4_-F0_pad-13"/><rect x="-635" y="-635" width="1270" height="1270" id="AmgbGXX4_-F0_pad-14"/><circle cx="0" cy="0" r="635" id="AmgbGXX4_-F0_pad-15"/><circle cx="0" cy="0" r="1524" id="AmgbGXX4_-F0_pad-16"/><circle cx="0" cy="0" r="400" id="AmgbGXX4_-F0_pad-17"/><circle cx="0" cy="0" r="850" id="AmgbGXX4_-F0_pad-12"/><rect x="-975" y="-850" width="1950" height="1700" rx="850" ry="850" id="AmgbGXX4_-F0_pad-13"/><rect x="-635" y="-635" width="1270" height="1270" id="AmgbGXX4_-F0_pad-14"/><circle cx="0" cy="0" r="635" id="AmgbGXX4_-F0_pad-15"/><circle cx="0" cy="0" r="1524" id="AmgbGXX4_-F0_pad-16"/><circle cx="0" cy="0" r="400" id="AmgbGXX4_-F0_pad-17"/><circle cx="0" cy="0" r="850" id="nynZs0zEh18u_pad-11"/><rect x="-975" y="-850" width="1950" height="1700" rx="850" ry="850" id="nynZs0zEh18u_pad-12"/><circle cx="0" cy="0" r="2150" id="nynZs0zEh18u_pad-13"/><rect x="-635" y="-635" width="1270" height="1270" id="nynZs0zEh18u_pad-14"/><circle cx="0" cy="0" r="635" id="nynZs0zEh18u_pad-15"/><circle cx="0" cy="0" r="1524" id="nynZs0zEh18u_pad-16"/><circle cx="0" cy="0" r="850" id="AmgbGXX4_-F0_pad-12"/><rect x="-975" y="-850" width="1950" height="1700" rx="850" ry="850" id="AmgbGXX4_-F0_pad-13"/><rect x="-635" y="-635" width="1270" height="1270" id="AmgbGXX4_-F0_pad-14"/><circle cx="0" cy="0" r="635" id="AmgbGXX4_-F0_pad-15"/><circle cx="0" cy="0" r="1524" id="AmgbGXX4_-F0_pad-16"/><circle cx="0" cy="0" r="400" id="AmgbGXX4_-F0_pad-17"/><circle cx="0" cy="0" r="850" id="AmgbGXX4_-F0_pad-12"/><rect x="-975" y="-850" width="1950" height="1700" rx="850" ry="850" id="AmgbGXX4_-F0_pad-13"/><rect x="-635" y="-635" width="1270" height="1270" id="AmgbGXX4_-F0_pad-14"/><circle cx="0" cy="0" r="635" id="AmgbGXX4_-F0_pad-15"/><circle cx="0" cy="0" r="1524" id="AmgbGXX4_-F0_pad-16"/><circle cx="0" cy="0" r="400" id="AmgbGXX4_-F0_pad-17"/><circle cx="0" cy="0" r="850" id="nynZs0zEh18u_pad-11"/><rect x="-975" y="-850" width="1950" height="1700" rx="850" ry="850" id="nynZs0zEh18u_pad-12"/><circle cx="0" cy="0" r="2150" id="nynZs0zEh18u_pad-13"/><rect x="-635" y="-635" width="1270" height="1270" id="nynZs0zEh18u_pad-14"/><circle cx="0" cy="0" r="635" id="nynZs0zEh18u_pad-15"/><circle cx="0" cy="0" r="1524" id="nynZs0zEh18u_pad-16"/><circle cx="0" cy="0" r="850" id="AmgbGXX4_-F0_pad-12"/><rect x="-975" y="-850" width="1950" height="1700" rx="850" ry="850" id="AmgbGXX4_-F0_pad-13"/><rect x="-635" y="-635" width="1270" height="1270" id="AmgbGXX4_-F0_pad-14"/><circle cx="0" cy="0" r="635" id="AmgbGXX4_-F0_pad-15"/><circle cx="0" cy="0" r="1524" id="AmgbGXX4_-F0_pad-16"/><circle cx="0" cy="0" r="400" id="AmgbGXX4_-F0_pad-17"/><circle cx="0" cy="0" r="850" id="AmgbGXX4_-F0_pad-12"/><rect x="-975" y="-850" width="1950" height="1700" rx="850" ry="850" id="AmgbGXX4_-F0_pad-13"/><rect x="-635" y="-635" width="1270" height="1270" id="AmgbGXX4_-F0_pad-14"/><circle cx="0" cy="0" r="635" id="AmgbGXX4_-F0_pad-15"/><circle cx="0" cy="0" r="1524" id="AmgbGXX4_-F0_pad-16"/><circle cx="0" cy="0" r="400" id="AmgbGXX4_-F0_pad-17"/><circle cx="0" cy="0" r="850" id="nynZs0zEh18u_pad-11"/><rect x="-975" y="-850" width="1950" height="1700" rx="850" ry="850" id="nynZs0zEh18u_pad-12"/><circle cx="0" cy="0" r="2150" id="nynZs0zEh18u_pad-13"/><rect x="-635" y="-635" width="1270" height="1270" id="nynZs0zEh18u_pad-14"/><circle cx="0" cy="0" r="635" id="nynZs0zEh18u_pad-15"/><circle cx="0" cy="0" r="1524" id="nynZs0zEh18u_pad-16"/><circle cx="0" cy="0" r="84.65" id="jGVL8mCcYfGG_pad-1"/><circle cx="0" cy="0" r="7.85" id="NTtqUJ3OQqD3_pad-1"/><circle cx="0" cy="0" r="12.5" id="NTtqUJ3OQqD3_pad-2"/><circle cx="0" cy="0" r="18.7" id="NTtqUJ3OQqD3_pad-3"/><circle cx="0" cy="0" r="37.5" id="NTtqUJ3OQqD3_pad-4"/><g id="pcb-stackup_bottom_cu"><path d="M 133000 -91000 A 2000 2000 0 0 0 135000 -93000 M 135000 -107000 A 2000 2000 0 0 0 133000 -109000 M 98000 -109000 A 2000 2000 0 0 0 96000 -107000 M 96000 -93000 A 2000 2000 0 0 0 98000 -91000 M 135000 -107000 135000 -93000 M 98000 -109000 133000 -109000 M 96000 -93000 96000 -107000 M 133000 -91000 98000 -91000" fill="none" stroke-width="100"/><path d="M 100749.504 -95401.204 100773.773 -95404.804 100797.571 -95410.765 100820.671 -95419.03 100842.849 -95429.52 100863.893 -95442.133 100883.598 -95456.747 100901.777 -95473.223 100918.253 -95491.402 100932.867 -95511.107 100945.48 -95532.151 100955.97 -95554.329 100964.235 -95577.429 100970.196 -95601.227 100973.796 -95625.496 100975 -95650 100975 -96850 100973.796 -96874.504 100970.196 -96898.773 100964.235 -96922.571 100955.97 -96945.671 100945.48 -96967.849 100932.867 -96988.893 100918.253 -97008.598 100901.777 -97026.777 100883.598 -97043.253 100863.893 -97057.867 100842.849 -97070.48 100820.671 -97080.97 100797.571 -97089.235 100773.773 -97095.196 100749.504 -97098.796 100725 -97100 99275 -97100 99250.496 -97098.796 99226.227 -97095.196 99202.429 -97089.235 99179.329 -97080.97 99157.151 -97070.48 99136.107 -97057.867 99116.402 -97043.253 99098.223 -97026.777 99081.747 -97008.598 99067.133 -96988.893 99054.52 -96967.849 99044.03 -96945.671 99035.765 -96922.571 99029.804 -96898.773 99026.204 -96874.504 99025 -96850 99025 -95650 99026.204 -95625.496 99029.804 -95601.227 99035.765 -95577.429 99044.03 -95554.329 99054.52 -95532.151 99067.133 -95511.107 99081.747 -95491.402 99098.223 -95473.223 99116.402 -95456.747 99136.107 -95442.133 99157.151 -95429.52 99179.329 -95419.03 99202.429 -95410.765 99226.227 -95404.804 99250.496 -95401.204 99275 -95400 100725 -95400 100749.504 -95401.204 100749.504 -95401.204"/><use xlink:href="#AmgbGXX4_-F0_pad-12" x="100000" y="-96250"/><use xlink:href="#AmgbGXX4_-F0_pad-13" x="100000" y="-98750"/><use xlink:href="#AmgbGXX4_-F0_pad-13" x="100000" y="-101250"/><use xlink:href="#AmgbGXX4_-F0_pad-13" x="100000" y="-103750"/><use xlink:href="#AmgbGXX4_-F0_pad-14" x="124412" y="-101905"/><use xlink:href="#AmgbGXX4_-F0_pad-15" x="126317" y="-101905"/><use xlink:href="#AmgbGXX4_-F0_pad-15" x="124412" y="-100000"/><use xlink:href="#AmgbGXX4_-F0_pad-15" x="126317" y="-100000"/><use xlink:href="#AmgbGXX4_-F0_pad-15" x="124412" y="-98095"/><use xlink:href="#AmgbGXX4_-F0_pad-15" x="126317" y="-98095"/><use xlink:href="#AmgbGXX4_-F0_pad-16" x="127206" y="-106350"/><use xlink:href="#AmgbGXX4_-F0_pad-16" x="132540" y="-93650"/><use xlink:href="#AmgbGXX4_-F0_pad-16" x="132540" y="-106350"/><use xlink:href="#AmgbGXX4_-F0_pad-16" x="127206" y="-93650"/><use xlink:href="#AmgbGXX4_-F0_pad-17" x="102500" y="-99000"/><use xlink:href="#AmgbGXX4_-F0_pad-17" x="106500" y="-102000"/><use xlink:href="#AmgbGXX4_-F0_pad-17" x="120000" y="-104500"/><use xlink:href="#AmgbGXX4_-F0_pad-17" x="120000" y="-95500"/><use xlink:href="#AmgbGXX4_-F0_pad-17" x="106500" y="-93500"/><path d="M 123507 -99000 124412 -98095 M 102500 -99000 123507 -99000 M 100125 -98750 104240.001 -102865.001 M 125356.999 -102865.001 125682.001 -102539.999 M 100000 -98750 100125 -98750 M 125682.001 -102539.999 126317 -101905 M 104240.001 -102865.001 125356.999 -102865.001" fill="none" stroke-width="250"/><path d="M 133320.162 -91383.071 133628.13 -91476.052 133912.169 -91627.079 134161.464 -91830.4 134366.521 -92078.271 134519.527 -92361.25 134614.654 -92668.56 134650.001 -93004.859 134650 -106982.878 134616.929 -107320.164 134523.949 -107628.126 134372.924 -107912.164 134169.602 -108161.462 133921.729 -108366.521 133638.75 -108519.527 133331.445 -108614.654 132995.151 -108650 98017.122 -108650 97679.836 -108616.929 97371.874 -108523.949 97087.836 -108372.924 96838.538 -108169.602 96633.479 -107921.729 96480.473 -107638.75 96385.346 -107331.445 96350 -106995.151 96350 -104219.977 98825.418 -104219.977 98860.415 -104270.828 98981.518 -104458.756 99136.957 -104619.447 99320.759 -104746.726 99525.86 -104835.701 99700 -104801.952 99700 -104050 100300 -104050 100300 -104801.952 100474.14 -104835.701 100679.241 -104746.726 100863.043 -104619.447 101018.482 -104458.756 101139.585 -104270.828 101174.582 -104219.977 101157.291 -104050 100300 -104050 99700 -104050 98842.709 -104050 98825.418 -104219.977 96350 -104219.977 96350 -103280.023 98825.418 -103280.023 98842.709 -103450 99700 -103450 99700 -102698.048 100300 -102698.048 100300 -103450 101157.291 -103450 101174.582 -103280.023 101139.585 -103229.172 101018.482 -103041.244 100863.043 -102880.553 100679.241 -102753.274 100474.14 -102664.299 100300 -102698.048 99700 -102698.048 99525.86 -102664.299 99320.759 -102753.274 99136.957 -102880.553 98981.518 -103041.244 98860.415 -103229.172 98825.418 -103280.023 96350 -103280.023 96350 -101250 98719.436 -101250 98741.64 -101475.439 98807.398 -101692.215 98914.184 -101891.997 99057.893 -102067.107 99233.003 -102210.816 99432.785 -102317.602 99649.561 -102383.36 99818.508 -102400 100181.492 -102400 100350.439 -102383.36 100567.215 -102317.602 100766.997 -102210.816 100942.107 -102067.107 101085.816 -101891.997 101192.602 -101692.215 101258.36 -101475.439 101280.564 -101250 101258.36 -101024.561 101192.602 -100807.785 101085.816 -100608.003 100942.107 -100432.893 100766.997 -100289.184 100567.215 -100182.398 100350.439 -100116.64 100181.492 -100100 99818.508 -100100 99649.561 -100116.64 99432.785 -100182.398 99233.003 -100289.184 99057.893 -100432.893 98914.184 -100608.003 98807.398 -100807.785 98741.64 -101024.561 98719.436 -101250 96350 -101250 96350 -98750 98719.436 -98750 98741.64 -98975.439 98807.398 -99192.215 98914.184 -99391.997 99057.893 -99567.107 99233.003 -99710.816 99432.785 -99817.602 99649.561 -99883.36 99818.508 -99900 100181.492 -99900 100350.439 -99883.36 100567.215 -99817.602 100583.081 -99809.121 103924.722 -103150.763 103938.027 -103166.975 104002.741 -103220.085 104076.574 -103259.549 104132.384 -103276.479 104156.686 -103283.851 104165.099 -103284.68 104219.127 -103290.001 104219.133 -103290.001 104240 -103292.056 104260.867 -103290.001 113933.251 -103290.001 113839.49 -103328.838 113438.216 -103596.96 113096.96 -103938.216 112828.838 -104339.49 112644.152 -104785.361 112550 -105258.696 112550 -105741.304 112644.152 -106214.639 112828.838 -106660.51 113096.96 -107061.784 113438.216 -107403.04 113839.49 -107671.162 114285.361 -107855.848 114758.696 -107950 115241.304 -107950 115714.639 -107855.848 116160.51 -107671.162 116561.784 -107403.04 116903.04 -107061.784 117171.162 -106660.51 117355.848 -106214.639 117364.657 -106170.352 125382 -106170.352 125382 -106529.648 125452.095 -106882.041 125589.592 -107213.988 125789.206 -107512.733 126043.267 -107766.794 126342.012 -107966.408 126673.959 -108103.905 127026.352 -108174 127385.648 -108174 127738.041 -108103.905 128069.988 -107966.408 128368.733 -107766.794 128622.794 -107512.733 128822.408 -107213.988 128959.905 -106882.041 129030 -106529.648 129030 -106170.352 130716 -106170.352 130716 -106529.648 130786.095 -106882.041 130923.592 -107213.988 131123.206 -107512.733 131377.267 -107766.794 131676.012 -107966.408 132007.959 -108103.905 132360.352 -108174 132719.648 -108174 133072.041 -108103.905 133403.988 -107966.408 133702.733 -107766.794 133956.794 -107512.733 134156.408 -107213.988 134293.905 -106882.041 134364 -106529.648 134364 -106170.352 134293.905 -105817.959 134156.408 -105486.012 133956.794 -105187.267 133702.733 -104933.206 133403.988 -104733.592 133072.041 -104596.095 132719.648 -104526 132360.352 -104526 132007.959 -104596.095 131676.012 -104733.592 131377.267 -104933.206 131123.206 -105187.267 130923.592 -105486.012 130786.095 -105817.959 130716 -106170.352 129030 -106170.352 128959.905 -105817.959 128822.408 -105486.012 128622.794 -105187.267 128368.733 -104933.206 128069.988 -104733.592 127738.041 -104596.095 127385.648 -104526 127026.352 -104526 126673.959 -104596.095 126342.012 -104733.592 126043.267 -104933.206 125789.206 -105187.267 125589.592 -105486.012 125452.095 -105817.959 125382 -106170.352 117364.657 -106170.352 117450 -105741.304 117450 -105258.696 117355.848 -104785.361 117171.162 -104339.49 116903.04 -103938.216 116561.784 -103596.96 116160.51 -103328.838 116066.749 -103290.001 125336.132 -103290.001 125356.999 -103292.056 125377.866 -103290.001 125377.873 -103290.001 125440.313 -103283.851 125520.426 -103259.549 125594.259 -103220.085 125658.973 -103166.975 125672.282 -103150.758 125997.281 -102825.76 125997.285 -102825.755 126026.382 -102796.658 126044.271 -102804.068 126224.911 -102840 126409.089 -102840 126589.729 -102804.068 126759.889 -102733.586 126913.028 -102631.262 127043.262 -102501.028 127145.586 -102347.889 127216.068 -102177.729 127252 -101997.089 127252 -101812.911 127216.068 -101632.271 127145.586 -101462.111 127043.262 -101308.972 126913.028 -101178.738 126759.889 -101076.414 126589.729 -101005.932 126409.089 -100970 126224.911 -100970 126044.271 -101005.932 125874.111 -101076.414 125720.972 -101178.738 125590.738 -101308.972 125488.414 -101462.111 125417.932 -101632.271 125382 -101812.911 125382 -101997.089 125417.932 -102177.729 125425.342 -102195.618 125396.245 -102224.715 125396.24 -102224.719 125348.451 -102272.508 125348.451 -101270 125342.659 -101211.19 125325.504 -101154.64 125297.647 -101102.523 125260.158 -101056.842 125214.477 -101019.353 125162.36 -100991.496 125105.81 -100974.341 125047 -100968.549 123777 -100968.549 123718.19 -100974.341 123661.64 -100991.496 123609.523 -101019.353 123563.842 -101056.842 123526.353 -101102.523 123498.496 -101154.64 123481.341 -101211.19 123475.549 -101270 123475.549 -102440.001 104416.042 -102440.001 101184.121 -99208.081 101192.602 -99192.215 101258.36 -98975.439 101262.731 -98931.056 101800 -98931.056 101800 -99068.944 101826.901 -99204.182 101879.668 -99331.574 101956.274 -99446.224 102053.776 -99543.726 102168.426 -99620.332 102295.818 -99673.099 102431.056 -99700 102568.944 -99700 102704.182 -99673.099 102831.574 -99620.332 102946.224 -99543.726 103043.726 -99446.224 103057.907 -99425 123486.133 -99425 123507 -99427.055 123527.867 -99425 123527.874 -99425 123590.314 -99418.85 123670.427 -99394.548 123723.564 -99366.146 123685.738 -99403.972 123583.414 -99557.111 123512.932 -99727.271 123477 -99907.911 123477 -100092.089 123512.932 -100272.729 123583.414 -100442.889 123685.738 -100596.028 123815.972 -100726.262 123969.111 -100828.586 124139.271 -100899.068 124319.911 -100935 124504.089 -100935 124684.729 -100899.068 124854.889 -100828.586 125008.028 -100726.262 125138.262 -100596.028 125240.586 -100442.889 125311.068 -100272.729 125347 -100092.089 125347 -99907.911 125382 -99907.911 125382 -100092.089 125417.932 -100272.729 125488.414 -100442.889 125590.738 -100596.028 125720.972 -100726.262 125874.111 -100828.586 126044.271 -100899.068 126224.911 -100935 126409.089 -100935 126589.729 -100899.068 126759.889 -100828.586 126913.028 -100726.262 127043.262 -100596.028 127145.586 -100442.889 127216.068 -100272.729 127252 -100092.089 127252 -99907.911 127216.068 -99727.271 127145.586 -99557.111 127043.262 -99403.972 126913.028 -99273.738 126759.889 -99171.414 126589.729 -99100.932 126409.089 -99065 126224.911 -99065 126044.271 -99100.932 125874.111 -99171.414 125720.972 -99273.738 125590.738 -99403.972 125488.414 -99557.111 125417.932 -99727.271 125382 -99907.911 125347 -99907.911 125311.068 -99727.271 125240.586 -99557.111 125138.262 -99403.972 125008.028 -99273.738 124854.889 -99171.414 124684.729 -99100.932 124504.089 -99065 124319.911 -99065 124139.271 -99100.932 123969.111 -99171.414 123871.213 -99236.827 124121.382 -98986.658 124139.271 -98994.068 124319.911 -99030 124504.089 -99030 124684.729 -98994.068 124854.889 -98923.586 124919.437 -98880.456 125955.808 -98880.456 126036.376 -98991.635 126216.693 -99029.154 126400.865 -99030.773 126581.814 -98996.431 126597.624 -98991.635 126678.192 -98880.456 126317 -98519.264 125955.808 -98880.456 124919.437 -98880.456 125008.028 -98821.262 125138.262 -98691.028 125240.586 -98537.889 125311.068 -98367.729 125347 -98187.089 125347 -98178.865 125381.227 -98178.865 125415.569 -98359.814 125420.365 -98375.624 125531.544 -98456.192 125892.736 -98095 126741.264 -98095 127102.456 -98456.192 127213.635 -98375.624 127251.154 -98195.307 127252.773 -98011.135 127218.431 -97830.186 127213.635 -97814.376 127102.456 -97733.808 126741.264 -98095 125892.736 -98095 125531.544 -97733.808 125420.365 -97814.376 125382.846 -97994.693 125381.227 -98178.865 125347 -98178.865 125347 -98002.911 125311.068 -97822.271 125240.586 -97652.111 125138.262 -97498.972 125008.028 -97368.738 124919.438 -97309.544 125955.808 -97309.544 126317 -97670.736 126678.192 -97309.544 126597.624 -97198.365 126417.307 -97160.846 126233.135 -97159.227 126052.186 -97193.569 126036.376 -97198.365 125955.808 -97309.544 124919.438 -97309.544 124854.889 -97266.414 124684.729 -97195.932 124504.089 -97160 124319.911 -97160 124139.271 -97195.932 123969.111 -97266.414 123815.972 -97368.738 123685.738 -97498.972 123583.414 -97652.111 123512.932 -97822.271 123477 -98002.911 123477 -98187.089 123512.932 -98367.729 123520.342 -98385.618 123330.96 -98575 103057.907 -98575 103043.726 -98553.776 102946.224 -98456.274 102831.574 -98379.668 102704.182 -98326.901 102568.944 -98300 102431.056 -98300 102295.818 -98326.901 102168.426 -98379.668 102053.776 -98456.274 101956.274 -98553.776 101879.668 -98668.426 101826.901 -98795.818 101800 -98931.056 101262.731 -98931.056 101280.564 -98750 101258.36 -98524.561 101192.602 -98307.785 101085.816 -98108.003 100942.107 -97932.893 100766.997 -97789.184 100567.215 -97682.398 100350.439 -97616.64 100181.492 -97600 99818.508 -97600 99649.561 -97616.64 99432.785 -97682.398 99233.003 -97789.184 99057.893 -97932.893 98914.184 -98108.003 98807.398 -98307.785 98741.64 -98524.561 98719.436 -98750 96350 -98750 96350 -95650 98723.549 -95650 98723.549 -96850 98734.145 -96957.583 98765.526 -97061.031 98816.485 -97156.37 98885.065 -97239.935 98968.63 -97308.515 99063.969 -97359.474 99167.417 -97390.855 99275 -97401.451 100725 -97401.451 100832.583 -97390.855 100936.031 -97359.474 101031.37 -97308.515 101114.935 -97239.935 101183.515 -97156.37 101234.474 -97061.031 101265.855 -96957.583 101276.451 -96850 101276.451 -95650 101265.855 -95542.417 101234.474 -95438.969 101183.515 -95343.63 101114.935 -95260.065 101031.37 -95191.485 100936.031 -95140.526 100832.583 -95109.145 100725 -95098.549 99275 -95098.549 99167.417 -95109.145 99063.969 -95140.526 98968.63 -95191.485 98885.065 -95260.065 98816.485 -95343.63 98765.526 -95438.969 98734.145 -95542.417 98723.549 -95650 96350 -95650 96350 -94258.696 112550 -94258.696 112550 -94741.304 112644.152 -95214.639 112828.838 -95660.51 113096.96 -96061.784 113438.216 -96403.04 113839.49 -96671.162 114285.361 -96855.848 114758.696 -96950 115241.304 -96950 115714.639 -96855.848 116160.51 -96671.162 116561.784 -96403.04 116903.04 -96061.784 117171.162 -95660.51 117355.848 -95214.639 117450 -94741.304 117450 -94258.696 117355.848 -93785.361 117225.367 -93470.352 125382 -93470.352 125382 -93829.648 125452.095 -94182.041 125589.592 -94513.988 125789.206 -94812.733 126043.267 -95066.794 126342.012 -95266.408 126673.959 -95403.905 127026.352 -95474 127385.648 -95474 127738.041 -95403.905 128069.988 -95266.408 128368.733 -95066.794 128622.794 -94812.733 128822.408 -94513.988 128959.905 -94182.041 129030 -93829.648 129030 -93470.352 130716 -93470.352 130716 -93829.648 130786.095 -94182.041 130923.592 -94513.988 131123.206 -94812.733 131377.267 -95066.794 131676.012 -95266.408 132007.959 -95403.905 132360.352 -95474 132719.648 -95474 133072.041 -95403.905 133403.988 -95266.408 133702.733 -95066.794 133956.794 -94812.733 134156.408 -94513.988 134293.905 -94182.041 134364 -93829.648 134364 -93470.352 134293.905 -93117.959 134156.408 -92786.012 133956.794 -92487.267 133702.733 -92233.206 133403.988 -92033.592 133072.041 -91896.095 132719.648 -91826 132360.352 -91826 132007.959 -91896.095 131676.012 -92033.592 131377.267 -92233.206 131123.206 -92487.267 130923.592 -92786.012 130786.095 -93117.959 130716 -93470.352 129030 -93470.352 128959.905 -93117.959 128822.408 -92786.012 128622.794 -92487.267 128368.733 -92233.206 128069.988 -92033.592 127738.041 -91896.095 127385.648 -91826 127026.352 -91826 126673.959 -91896.095 126342.012 -92033.592 126043.267 -92233.206 125789.206 -92487.267 125589.592 -92786.012 125452.095 -93117.959 125382 -93470.352 117225.367 -93470.352 117171.162 -93339.49 116903.04 -92938.216 116561.784 -92596.96 116160.51 -92328.838 115714.639 -92144.152 115241.304 -92050 114758.696 -92050 114285.361 -92144.152 113839.49 -92328.838 113438.216 -92596.96 113096.96 -92938.216 112828.838 -93339.49 112644.152 -93785.361 112550 -94258.696 96350 -94258.696 96350 -93017.122 96383.071 -92679.838 96476.052 -92371.87 96627.079 -92087.831 96830.4 -91838.536 97078.271 -91633.479 97361.25 -91480.473 97668.56 -91385.346 98004.849 -91350 132982.878 -91350 133320.162 -91383.071 133320.162 -91383.071"/><path d="M 133320.162 -91383.071 133628.13 -91476.052 133912.169 -91627.079 134161.464 -91830.4 134366.521 -92078.271 134519.527 -92361.25 134614.654 -92668.56 134650.001 -93004.859 134650 -106982.878 134616.929 -107320.164 134523.949 -107628.126 134372.924 -107912.164 134169.602 -108161.462 133921.729 -108366.521 133638.75 -108519.527 133331.445 -108614.654 132995.151 -108650 98017.122 -108650 97679.836 -108616.929 97371.874 -108523.949 97087.836 -108372.924 96838.538 -108169.602 96633.479 -107921.729 96480.473 -107638.75 96385.346 -107331.445 96350 -106995.151 96350 -104219.977 98825.418 -104219.977 98860.415 -104270.828 98981.518 -104458.756 99136.957 -104619.447 99320.759 -104746.726 99525.86 -104835.701 99700 -104801.952 99700 -104050 100300 -104050 100300 -104801.952 100474.14 -104835.701 100679.241 -104746.726 100863.043 -104619.447 101018.482 -104458.756 101139.585 -104270.828 101174.582 -104219.977 101157.291 -104050 100300 -104050 99700 -104050 98842.709 -104050 98825.418 -104219.977 96350 -104219.977 96350 -103280.023 98825.418 -103280.023 98842.709 -103450 99700 -103450 99700 -102698.048 100300 -102698.048 100300 -103450 101157.291 -103450 101174.582 -103280.023 101139.585 -103229.172 101018.482 -103041.244 100863.043 -102880.553 100679.241 -102753.274 100474.14 -102664.299 100300 -102698.048 99700 -102698.048 99525.86 -102664.299 99320.759 -102753.274 99136.957 -102880.553 98981.518 -103041.244 98860.415 -103229.172 98825.418 -103280.023 96350 -103280.023 96350 -101250 98719.436 -101250 98741.64 -101475.439 98807.398 -101692.215 98914.184 -101891.997 99057.893 -102067.107 99233.003 -102210.816 99432.785 -102317.602 99649.561 -102383.36 99818.508 -102400 100181.492 -102400 100350.439 -102383.36 100567.215 -102317.602 100766.997 -102210.816 100942.107 -102067.107 101085.816 -101891.997 101192.602 -101692.215 101258.36 -101475.439 101280.564 -101250 101258.36 -101024.561 101192.602 -100807.785 101085.816 -100608.003 100942.107 -100432.893 100766.997 -100289.184 100567.215 -100182.398 100350.439 -100116.64 100181.492 -100100 99818.508 -100100 99649.561 -100116.64 99432.785 -100182.398 99233.003 -100289.184 99057.893 -100432.893 98914.184 -100608.003 98807.398 -100807.785 98741.64 -101024.561 98719.436 -101250 96350 -101250 96350 -98750 98719.436 -98750 98741.64 -98975.439 98807.398 -99192.215 98914.184 -99391.997 99057.893 -99567.107 99233.003 -99710.816 99432.785 -99817.602 99649.561 -99883.36 99818.508 -99900 100181.492 -99900 100350.439 -99883.36 100567.215 -99817.602 100583.081 -99809.121 103924.722 -103150.763 103938.027 -103166.975 104002.741 -103220.085 104076.574 -103259.549 104132.384 -103276.479 104156.686 -103283.851 104165.099 -103284.68 104219.127 -103290.001 104219.133 -103290.001 104240 -103292.056 104260.867 -103290.001 113933.251 -103290.001 113839.49 -103328.838 113438.216 -103596.96 113096.96 -103938.216 112828.838 -104339.49 112644.152 -104785.361 112550 -105258.696 112550 -105741.304 112644.152 -106214.639 112828.838 -106660.51 113096.96 -107061.784 113438.216 -107403.04 113839.49 -107671.162 114285.361 -107855.848 114758.696 -107950 115241.304 -107950 115714.639 -107855.848 116160.51 -107671.162 116561.784 -107403.04 116903.04 -107061.784 117171.162 -106660.51 117355.848 -106214.639 117364.657 -106170.352 125382 -106170.352 125382 -106529.648 125452.095 -106882.041 125589.592 -107213.988 125789.206 -107512.733 126043.267 -107766.794 126342.012 -107966.408 126673.959 -108103.905 127026.352 -108174 127385.648 -108174 127738.041 -108103.905 128069.988 -107966.408 128368.733 -107766.794 128622.794 -107512.733 128822.408 -107213.988 128959.905 -106882.041 129030 -106529.648 129030 -106170.352 130716 -106170.352 130716 -106529.648 130786.095 -106882.041 130923.592 -107213.988 131123.206 -107512.733 131377.267 -107766.794 131676.012 -107966.408 132007.959 -108103.905 132360.352 -108174 132719.648 -108174 133072.041 -108103.905 133403.988 -107966.408 133702.733 -107766.794 133956.794 -107512.733 134156.408 -107213.988 134293.905 -106882.041 134364 -106529.648 134364 -106170.352 134293.905 -105817.959 134156.408 -105486.012 133956.794 -105187.267 133702.733 -104933.206 133403.988 -104733.592 133072.041 -104596.095 132719.648 -104526 132360.352 -104526 132007.959 -104596.095 131676.012 -104733.592 131377.267 -104933.206 131123.206 -105187.267 130923.592 -105486.012 130786.095 -105817.959 130716 -106170.352 129030 -106170.352 128959.905 -105817.959 128822.408 -105486.012 128622.794 -105187.267 128368.733 -104933.206 128069.988 -104733.592 127738.041 -104596.095 127385.648 -104526 127026.352 -104526 126673.959 -104596.095 126342.012 -104733.592 126043.267 -104933.206 125789.206 -105187.267 125589.592 -105486.012 125452.095 -105817.959 125382 -106170.352 117364.657 -106170.352 117450 -105741.304 117450 -105258.696 117355.848 -104785.361 117171.162 -104339.49 116903.04 -103938.216 116561.784 -103596.96 116160.51 -103328.838 116066.749 -103290.001 125336.132 -103290.001 125356.999 -103292.056 125377.866 -103290.001 125377.873 -103290.001 125440.313 -103283.851 125520.426 -103259.549 125594.259 -103220.085 125658.973 -103166.975 125672.282 -103150.758 125997.281 -102825.76 125997.285 -102825.755 126026.382 -102796.658 126044.271 -102804.068 126224.911 -102840 126409.089 -102840 126589.729 -102804.068 126759.889 -102733.586 126913.028 -102631.262 127043.262 -102501.028 127145.586 -102347.889 127216.068 -102177.729 127252 -101997.089 127252 -101812.911 127216.068 -101632.271 127145.586 -101462.111 127043.262 -101308.972 126913.028 -101178.738 126759.889 -101076.414 126589.729 -101005.932 126409.089 -100970 126224.911 -100970 126044.271 -101005.932 125874.111 -101076.414 125720.972 -101178.738 125590.738 -101308.972 125488.414 -101462.111 125417.932 -101632.271 125382 -101812.911 125382 -101997.089 125417.932 -102177.729 125425.342 -102195.618 125396.245 -102224.715 125396.24 -102224.719 125348.451 -102272.508 125348.451 -101270 125342.659 -101211.19 125325.504 -101154.64 125297.647 -101102.523 125260.158 -101056.842 125214.477 -101019.353 125162.36 -100991.496 125105.81 -100974.341 125047 -100968.549 123777 -100968.549 123718.19 -100974.341 123661.64 -100991.496 123609.523 -101019.353 123563.842 -101056.842 123526.353 -101102.523 123498.496 -101154.64 123481.341 -101211.19 123475.549 -101270 123475.549 -102440.001 104416.042 -102440.001 101184.121 -99208.081 101192.602 -99192.215 101258.36 -98975.439 101262.731 -98931.056 101800 -98931.056 101800 -99068.944 101826.901 -99204.182 101879.668 -99331.574 101956.274 -99446.224 102053.776 -99543.726 102168.426 -99620.332 102295.818 -99673.099 102431.056 -99700 102568.944 -99700 102704.182 -99673.099 102831.574 -99620.332 102946.224 -99543.726 103043.726 -99446.224 103057.907 -99425 123486.133 -99425 123507 -99427.055 123527.867 -99425 123527.874 -99425 123590.314 -99418.85 123670.427 -99394.548 123723.564 -99366.146 123685.738 -99403.972 123583.414 -99557.111 123512.932 -99727.271 123477 -99907.911 123477 -100092.089 123512.932 -100272.729 123583.414 -100442.889 123685.738 -100596.028 123815.972 -100726.262 123969.111 -100828.586 124139.271 -100899.068 124319.911 -100935 124504.089 -100935 124684.729 -100899.068 124854.889 -100828.586 125008.028 -100726.262 125138.262 -100596.028 125240.586 -100442.889 125311.068 -100272.729 125347 -100092.089 125347 -99907.911 125382 -99907.911 125382 -100092.089 125417.932 -100272.729 125488.414 -100442.889 125590.738 -100596.028 125720.972 -100726.262 125874.111 -100828.586 126044.271 -100899.068 126224.911 -100935 126409.089 -100935 126589.729 -100899.068 126759.889 -100828.586 126913.028 -100726.262 127043.262 -100596.028 127145.586 -100442.889 127216.068 -100272.729 127252 -100092.089 127252 -99907.911 127216.068 -99727.271 127145.586 -99557.111 127043.262 -99403.972 126913.028 -99273.738 126759.889 -99171.414 126589.729 -99100.932 126409.089 -99065 126224.911 -99065 126044.271 -99100.932 125874.111 -99171.414 125720.972 -99273.738 125590.738 -99403.972 125488.414 -99557.111 125417.932 -99727.271 125382 -99907.911 125347 -99907.911 125311.068 -99727.271 125240.586 -99557.111 125138.262 -99403.972 125008.028 -99273.738 124854.889 -99171.414 124684.729 -99100.932 124504.089 -99065 124319.911 -99065 124139.271 -99100.932 123969.111 -99171.414 123871.213 -99236.827 124121.382 -98986.658 124139.271 -98994.068 124319.911 -99030 124504.089 -99030 124684.729 -98994.068 124854.889 -98923.586 124919.437 -98880.456 125955.808 -98880.456 126036.376 -98991.635 126216.693 -99029.154 126400.865 -99030.773 126581.814 -98996.431 126597.624 -98991.635 126678.192 -98880.456 126317 -98519.264 125955.808 -98880.456 124919.437 -98880.456 125008.028 -98821.262 125138.262 -98691.028 125240.586 -98537.889 125311.068 -98367.729 125347 -98187.089 125347 -98178.865 125381.227 -98178.865 125415.569 -98359.814 125420.365 -98375.624 125531.544 -98456.192 125892.736 -98095 126741.264 -98095 127102.456 -98456.192 127213.635 -98375.624 127251.154 -98195.307 127252.773 -98011.135 127218.431 -97830.186 127213.635 -97814.376 127102.456 -97733.808 126741.264 -98095 125892.736 -98095 125531.544 -97733.808 125420.365 -97814.376 125382.846 -97994.693 125381.227 -98178.865 125347 -98178.865 125347 -98002.911 125311.068 -97822.271 125240.586 -97652.111 125138.262 -97498.972 125008.028 -97368.738 124919.438 -97309.544 125955.808 -97309.544 126317 -97670.736 126678.192 -97309.544 126597.624 -97198.365 126417.307 -97160.846 126233.135 -97159.227 126052.186 -97193.569 126036.376 -97198.365 125955.808 -97309.544 124919.438 -97309.544 124854.889 -97266.414 124684.729 -97195.932 124504.089 -97160 124319.911 -97160 124139.271 -97195.932 123969.111 -97266.414 123815.972 -97368.738 123685.738 -97498.972 123583.414 -97652.111 123512.932 -97822.271 123477 -98002.911 123477 -98187.089 123512.932 -98367.729 123520.342 -98385.618 123330.96 -98575 103057.907 -98575 103043.726 -98553.776 102946.224 -98456.274 102831.574 -98379.668 102704.182 -98326.901 102568.944 -98300 102431.056 -98300 102295.818 -98326.901 102168.426 -98379.668 102053.776 -98456.274 101956.274 -98553.776 101879.668 -98668.426 101826.901 -98795.818 101800 -98931.056 101262.731 -98931.056 101280.564 -98750 101258.36 -98524.561 101192.602 -98307.785 101085.816 -98108.003 100942.107 -97932.893 100766.997 -97789.184 100567.215 -97682.398 100350.439 -97616.64 100181.492 -97600 99818.508 -97600 99649.561 -97616.64 99432.785 -97682.398 99233.003 -97789.184 99057.893 -97932.893 98914.184 -98108.003 98807.398 -98307.785 98741.64 -98524.561 98719.436 -98750 96350 -98750 96350 -95650 98723.549 -95650 98723.549 -96850 98734.145 -96957.583 98765.526 -97061.031 98816.485 -97156.37 98885.065 -97239.935 98968.63 -97308.515 99063.969 -97359.474 99167.417 -97390.855 99275 -97401.451 100725 -97401.451 100832.583 -97390.855 100936.031 -97359.474 101031.37 -97308.515 101114.935 -97239.935 101183.515 -97156.37 101234.474 -97061.031 101265.855 -96957.583 101276.451 -96850 101276.451 -95650 101265.855 -95542.417 101234.474 -95438.969 101183.515 -95343.63 101114.935 -95260.065 101031.37 -95191.485 100936.031 -95140.526 100832.583 -95109.145 100725 -95098.549 99275 -95098.549 99167.417 -95109.145 99063.969 -95140.526 98968.63 -95191.485 98885.065 -95260.065 98816.485 -95343.63 98765.526 -95438.969 98734.145 -95542.417 98723.549 -95650 96350 -95650 96350 -94258.696 112550 -94258.696 112550 -94741.304 112644.152 -95214.639 112828.838 -95660.51 113096.96 -96061.784 113438.216 -96403.04 113839.49 -96671.162 114285.361 -96855.848 114758.696 -96950 115241.304 -96950 115714.639 -96855.848 116160.51 -96671.162 116561.784 -96403.04 116903.04 -96061.784 117171.162 -95660.51 117355.848 -95214.639 117450 -94741.304 117450 -94258.696 117355.848 -93785.361 117225.367 -93470.352 125382 -93470.352 125382 -93829.648 125452.095 -94182.041 125589.592 -94513.988 125789.206 -94812.733 126043.267 -95066.794 126342.012 -95266.408 126673.959 -95403.905 127026.352 -95474 127385.648 -95474 127738.041 -95403.905 128069.988 -95266.408 128368.733 -95066.794 128622.794 -94812.733 128822.408 -94513.988 128959.905 -94182.041 129030 -93829.648 129030 -93470.352 130716 -93470.352 130716 -93829.648 130786.095 -94182.041 130923.592 -94513.988 131123.206 -94812.733 131377.267 -95066.794 131676.012 -95266.408 132007.959 -95403.905 132360.352 -95474 132719.648 -95474 133072.041 -95403.905 133403.988 -95266.408 133702.733 -95066.794 133956.794 -94812.733 134156.408 -94513.988 134293.905 -94182.041 134364 -93829.648 134364 -93470.352 134293.905 -93117.959 134156.408 -92786.012 133956.794 -92487.267 133702.733 -92233.206 133403.988 -92033.592 133072.041 -91896.095 132719.648 -91826 132360.352 -91826 132007.959 -91896.095 131676.012 -92033.592 131377.267 -92233.206 131123.206 -92487.267 130923.592 -92786.012 130786.095 -93117.959 130716 -93470.352 129030 -93470.352 128959.905 -93117.959 128822.408 -92786.012 128622.794 -92487.267 128368.733 -92233.206 128069.988 -92033.592 127738.041 -91896.095 127385.648 -91826 127026.352 -91826 126673.959 -91896.095 126342.012 -92033.592 126043.267 -92233.206 125789.206 -92487.267 125589.592 -92786.012 125452.095 -93117.959 125382 -93470.352 117225.367 -93470.352 117171.162 -93339.49 116903.04 -92938.216 116561.784 -92596.96 116160.51 -92328.838 115714.639 -92144.152 115241.304 -92050 114758.696 -92050 114285.361 -92144.152 113839.49 -92328.838 113438.216 -92596.96 113096.96 -92938.216 112828.838 -93339.49 112644.152 -93785.361 112550 -94258.696 96350 -94258.696 96350 -93017.122 96383.071 -92679.838 96476.052 -92371.87 96627.079 -92087.831 96830.4 -91838.536 97078.271 -91633.479 97361.25 -91480.473 97668.56 -91385.346 98004.849 -91350 132982.878 -91350 133320.162 -91383.071" fill="none" stroke-width="200"/></g><g id="pcb-stackup_bottom_sm"><path d="M 133000 -91000 A 2000 2000 0 0 0 135000 -93000 M 135000 -107000 A 2000 2000 0 0 0 133000 -109000 M 98000 -109000 A 2000 2000 0 0 0 96000 -107000 M 96000 -93000 A 2000 2000 0 0 0 98000 -91000 M 135000 -107000 135000 -93000 M 98000 -109000 133000 -109000 M 96000 -93000 96000 -107000 M 133000 -91000 98000 -91000" fill="none" stroke-width="100"/><path d="M 100749.504 -95401.204 100773.773 -95404.804 100797.571 -95410.765 100820.671 -95419.03 100842.849 -95429.52 100863.893 -95442.133 100883.598 -95456.747 100901.777 -95473.223 100918.253 -95491.402 100932.867 -95511.107 100945.48 -95532.151 100955.97 -95554.329 100964.235 -95577.429 100970.196 -95601.227 100973.796 -95625.496 100975 -95650 100975 -96850 100973.796 -96874.504 100970.196 -96898.773 100964.235 -96922.571 100955.97 -96945.671 100945.48 -96967.849 100932.867 -96988.893 100918.253 -97008.598 100901.777 -97026.777 100883.598 -97043.253 100863.893 -97057.867 100842.849 -97070.48 100820.671 -97080.97 100797.571 -97089.235 100773.773 -97095.196 100749.504 -97098.796 100725 -97100 99275 -97100 99250.496 -97098.796 99226.227 -97095.196 99202.429 -97089.235 99179.329 -97080.97 99157.151 -97070.48 99136.107 -97057.867 99116.402 -97043.253 99098.223 -97026.777 99081.747 -97008.598 99067.133 -96988.893 99054.52 -96967.849 99044.03 -96945.671 99035.765 -96922.571 99029.804 -96898.773 99026.204 -96874.504 99025 -96850 99025 -95650 99026.204 -95625.496 99029.804 -95601.227 99035.765 -95577.429 99044.03 -95554.329 99054.52 -95532.151 99067.133 -95511.107 99081.747 -95491.402 99098.223 -95473.223 99116.402 -95456.747 99136.107 -95442.133 99157.151 -95429.52 99179.329 -95419.03 99202.429 -95410.765 99226.227 -95404.804 99250.496 -95401.204 99275 -95400 100725 -95400 100749.504 -95401.204 100749.504 -95401.204"/><use xlink:href="#nynZs0zEh18u_pad-11" x="100000" y="-96250"/><use xlink:href="#nynZs0zEh18u_pad-12" x="100000" y="-98750"/><use xlink:href="#nynZs0zEh18u_pad-12" x="100000" y="-101250"/><use xlink:href="#nynZs0zEh18u_pad-12" x="100000" y="-103750"/><use xlink:href="#nynZs0zEh18u_pad-13" x="115000" y="-105500"/><use xlink:href="#nynZs0zEh18u_pad-13" x="115000" y="-94500"/><use xlink:href="#nynZs0zEh18u_pad-14" x="124412" y="-101905"/><use xlink:href="#nynZs0zEh18u_pad-15" x="126317" y="-101905"/><use xlink:href="#nynZs0zEh18u_pad-15" x="124412" y="-100000"/><use xlink:href="#nynZs0zEh18u_pad-15" x="126317" y="-100000"/><use xlink:href="#nynZs0zEh18u_pad-15" x="124412" y="-98095"/><use xlink:href="#nynZs0zEh18u_pad-15" x="126317" y="-98095"/><use xlink:href="#nynZs0zEh18u_pad-16" x="127206" y="-106350"/><use xlink:href="#nynZs0zEh18u_pad-16" x="132540" y="-93650"/><use xlink:href="#nynZs0zEh18u_pad-16" x="132540" y="-106350"/><use xlink:href="#nynZs0zEh18u_pad-16" x="127206" y="-93650"/></g><g id="pcb-stackup_bottom_sp"><path d="M 133000 -91000 A 2000 2000 0 0 0 135000 -93000 M 135000 -107000 A 2000 2000 0 0 0 133000 -109000 M 98000 -109000 A 2000 2000 0 0 0 96000 -107000 M 96000 -93000 A 2000 2000 0 0 0 98000 -91000 M 135000 -107000 135000 -93000 M 98000 -109000 133000 -109000 M 96000 -93000 96000 -107000 M 133000 -91000 98000 -91000" fill="none" stroke-width="100"/></g><g id="pcb-stackup_bottom_ss"><path d="M 133000 -91000 A 2000 2000 0 0 0 135000 -93000 M 135000 -107000 A 2000 2000 0 0 0 133000 -109000 M 98000 -109000 A 2000 2000 0 0 0 96000 -107000 M 96000 -93000 A 2000 2000 0 0 0 98000 -91000 M 135000 -107000 135000 -93000 M 98000 -109000 133000 -109000 M 96000 -93000 96000 -107000 M 133000 -91000 98000 -91000" fill="none" stroke-width="100"/></g><g id="pcb-stackup_bottom_drl1" transform="scale(25.4,25.4)"><use xlink:href="#jGVL8mCcYfGG_pad-1" x="4527.6" y="-3720.5"/><use xlink:href="#jGVL8mCcYfGG_pad-1" x="4527.6" y="-4153.5"/></g><g id="pcb-stackup_bottom_drl2" transform="scale(25.4,25.4)"><use xlink:href="#NTtqUJ3OQqD3_pad-1" x="4035.4" y="-3897.6"/><use xlink:href="#NTtqUJ3OQqD3_pad-1" x="4192.9" y="-3681.1"/><use xlink:href="#NTtqUJ3OQqD3_pad-1" x="4192.9" y="-4015.7"/><use xlink:href="#NTtqUJ3OQqD3_pad-1" x="4724.4" y="-3759.8"/><use xlink:href="#NTtqUJ3OQqD3_pad-1" x="4724.4" y="-4114.2"/><use xlink:href="#NTtqUJ3OQqD3_pad-2" x="4898.1" y="-3862"/><use xlink:href="#NTtqUJ3OQqD3_pad-2" x="4898.1" y="-3937"/><use xlink:href="#NTtqUJ3OQqD3_pad-2" x="4898.1" y="-4012"/><use xlink:href="#NTtqUJ3OQqD3_pad-2" x="4973.1" y="-3862"/><use xlink:href="#NTtqUJ3OQqD3_pad-2" x="4973.1" y="-3937"/><use xlink:href="#NTtqUJ3OQqD3_pad-2" x="4973.1" y="-4012"/><use xlink:href="#NTtqUJ3OQqD3_pad-3" x="3937" y="-3789.4"/><use xlink:href="#NTtqUJ3OQqD3_pad-3" x="3937" y="-3887.8"/><use xlink:href="#NTtqUJ3OQqD3_pad-3" x="3937" y="-3986.2"/><use xlink:href="#NTtqUJ3OQqD3_pad-3" x="3937" y="-4084.6"/><use xlink:href="#NTtqUJ3OQqD3_pad-4" x="5008.1" y="-3687"/><use xlink:href="#NTtqUJ3OQqD3_pad-4" x="5008.1" y="-4187"/><use xlink:href="#NTtqUJ3OQqD3_pad-4" x="5218.1" y="-3687"/><use xlink:href="#NTtqUJ3OQqD3_pad-4" x="5218.1" y="-4187"/></g><clipPath id="pcb-stackup_bottom_out"><path d="M 133000 -91000 A 2000 2000 0 0 0 135000 -93000 L 135000 -107000 A 2000 2000 0 0 0 133000 -109000 L 98000 -109000 A 2000 2000 0 0 0 96000 -107000 L 96000 -93000 A 2000 2000 0 0 0 98000 -91000 L 133000 -91000" fill="none" stroke-width="100"/></clipPath><mask id="pcb-stackup_bottom_mech-mask"><g fill="#000" stroke="#000"><rect x="96000" y="-109000" width="39000" height="18000" fill="#fff"/><use xlink:href="#pcb-stackup_bottom_drl1"/><use xlink:href="#pcb-stackup_bottom_drl2"/></g></mask><mask id="pcb-stackup_bottom_cf-mask"><g fill="#fff" stroke="#fff"><use xlink:href="#pcb-stackup_bottom_sm"/></g></mask><mask id="pcb-stackup_bottom_sm-mask"><g fill="#000" stroke="#000"><rect x="96000" y="-109000" width="39000" height="18000" fill="#fff"/><use xlink:href="#pcb-stackup_bottom_sm"/></g></mask></defs><g transform="translate(0,-200000) scale(1,-1)"><g mask="url(#pcb-stackup_bottom_mech-mask)" clip-path="url(#pcb-stackup_bottom_out)" transform="translate(231000,0) scale(-1,1)"><rect x="96000" y="-109000" width="39000" height="18000" fill="currentColor" class="pcb-stackup_fr4"/><use xlink:href="#pcb-stackup_bottom_cu" fill="currentColor" stroke="currentColor" class="pcb-stackup_cu"/><use xlink:href="#pcb-stackup_bottom_cu" fill="currentColor" stroke="currentColor" class="pcb-stackup_cf" mask="url(#pcb-stackup_bottom_cf-mask)"/><g mask="url(#pcb-stackup_bottom_sm-mask)"><rect x="96000" y="-109000" width="39000" height="18000" fill="currentColor" class="pcb-stackup_sm"/><use xlink:href="#pcb-stackup_bottom_ss" fill="currentColor" stroke="currentColor" class="pcb-stackup_ss"/></g><use xlink:href="#pcb-stackup_bottom_sp" fill="currentColor" stroke="currentColor" class="pcb-stackup_sp"/></g></g></svg>